<svg xmlns="http://www.w3.org/2000/svg" width="330" height="330" viewBox="0 0 330 330">
<rect width="330" height="330" fill="#2C5BA0"></rect>
<g fill="#EAF1F8">
<circle cx="36" cy="60" r="1" opacity="0.14"></circle>
<circle cx="132" cy="27" r="1.4" opacity="0.10"></circle>
<circle cx="234" cy="90" r="0.9" opacity="0.15"></circle>
<circle cx="294" cy="192" r="1.3" opacity="0.10"></circle>
<circle cx="180" cy="156" r="1" opacity="0.13"></circle>
<circle cx="72" cy="234" r="1.5" opacity="0.09"></circle>
<circle cx="258" cy="288" r="1" opacity="0.14"></circle>
<circle cx="150" cy="300" r="0.8" opacity="0.12"></circle>
</g>
<g stroke="#EAF1F8" fill="none" opacity="0.08">
<path d="M90 285 C96 240 102 195 108 144" stroke-width="1"></path>
<path d="M99 246 L72 228 M102 216 L78 195 M105 186 L84 168" stroke-width="0.8"></path>
<path d="M99 246 L123 225 M102 216 L126 198 M105 186 L126 171" stroke-width="0.8"></path>
</g>
</svg>