<svg xmlns="http://www.w3.org/2000/svg" viewBox="0 0 320 320" width="320" height="320"><g fill="#000"><g transform="translate(0.0 5.5) scale(2.000)"><path d="M-27.8 -4.7 C-24.4 -8 -20.5 -10.8 -17 -13.4 C-13.4 -16 -10.3 -18.3 -6.7 -19.7 C-3.2 -21.1 -0.6 -22.1 2.8 -22 C6.3 -21.8 9.1 -21.2 12.5 -19.4 C15.9 -17.6 18.9 -15 22.2 -12.1 C25.5 -9.1 28.6 -5.5 31.7 -1.9 C32.3 -1.1 33.4 -1 34.1 -1.7 C34.9 -2.3 35 -3.4 34.3 -4.1 C31.3 -7.7 27.7 -11.6 24.4 -14.5 C21 -17.4 17.3 -20.3 13.9 -22.1 C10.5 -23.9 6.4 -24.9 3 -25.1 C-0.4 -25.2 -4.5 -24.2 -8 -22.8 C-11.5 -21.4 -15.5 -18.9 -19.1 -16.3 C-22.6 -13.7 -26.9 -10.5 -30.2 -7.3 C-30.9 -6.6 -30.9 -5.5 -30.3 -4.8 C-29.6 -4.1 -28.5 -4.1 -27.8 -4.7 Z M-31.9 4.9 C-28.5 2.3 -24.8 0.3 -21.2 -1.8 C-17.6 -3.8 -14.5 -5.6 -11 -6.7 C-7.5 -7.8 -4.8 -8.8 -1.3 -8.6 C2.1 -8.4 5.1 -8 8.4 -6.6 C11.8 -5.1 14.9 -3 18.2 -0.6 C21.6 1.8 24.7 4.8 27.8 7.8 C28.5 8.5 29.6 8.4 30.3 7.7 C31 7 30.9 5.9 30.2 5.2 C27.1 2.3 23.5 -0.8 20.1 -3.2 C16.8 -5.6 13 -7.9 9.6 -9.3 C6.2 -10.8 2.3 -11.5 -1.2 -11.6 C-4.6 -11.8 -8.5 -11 -12 -9.9 C-15.5 -8.8 -19.4 -7 -23 -4.9 C-26.6 -2.9 -30.7 -0.5 -34.1 2.1 C-34.9 2.7 -35 3.8 -34.4 4.6 C-33.8 5.4 -32.7 5.5 -31.9 4.9 Z M-30.1 14.6 C-26.6 12.6 -22.9 11.3 -19.3 9.7 C-15.7 8.2 -12.6 6.9 -9 6.1 C-5.5 5.3 -2.5 4.4 1 4.6 C4.5 4.7 7.6 5 11.1 6.1 C14.5 7.2 17.7 8.9 21.2 10.8 C24.6 12.7 27.7 15.1 31 17.5 C31.8 18 32.9 17.8 33.5 17 C34 16.2 33.8 15.1 33 14.5 C29.8 12.2 26.1 9.8 22.7 7.9 C19.3 6.1 15.5 4.4 12 3.3 C8.5 2.2 4.6 1.7 1.1 1.6 C-2.4 1.4 -6.2 2 -9.8 2.8 C-13.3 3.6 -17.2 4.9 -20.8 6.4 C-24.3 7.9 -28.4 9.4 -31.9 11.4 C-32.8 11.9 -33.1 13 -32.6 13.9 C-32.1 14.8 -31 15.1 -30.1 14.6 Z M-31.4 24.1 C-27.9 22.9 -24.4 22.1 -20.9 21.2 C-17.4 20.2 -14.2 19.4 -10.7 18.9 C-7.3 18.4 -4.2 17.9 -0.7 18.1 C2.7 18.2 5.9 18.4 9.3 19.2 C12.7 20 16 21.2 19.4 22.5 C22.7 23.8 25.9 25.5 29.2 27.1 C30.1 27.5 31.2 27.1 31.6 26.3 C32 25.4 31.6 24.3 30.8 23.9 C27.5 22.3 23.9 20.7 20.5 19.4 C17.1 18.1 13.4 17.1 10 16.2 C6.6 15.4 2.9 15.1 -0.6 15 C-4 14.8 -7.7 15.1 -11.2 15.6 C-14.7 16.1 -18.4 16.8 -21.9 17.8 C-25.4 18.7 -29.2 19.6 -32.6 20.9 C-33.5 21.2 -34 22.2 -33.6 23.1 C-33.3 24 -32.3 24.5 -31.4 24.1 Z M-29.7 33.8 C-26.2 33.2 -22.7 33.1 -19.2 32.7 C-15.6 32.3 -12.3 32 -8.7 31.8 C-5.2 31.6 -1.9 31.2 1.6 31.4 C5.1 31.5 8.5 31.5 12 32 C15.5 32.5 18.8 33.2 22.3 33.9 C25.8 34.6 29.1 35.8 32.6 36.7 C33.5 37 34.5 36.4 34.7 35.4 C35 34.5 34.4 33.5 33.4 33.3 C30 32.4 26.5 31.4 23 30.7 C19.5 30 15.9 29.5 12.4 29 C8.9 28.5 5.2 28.5 1.7 28.3 C-1.8 28.2 -5.4 28.3 -8.9 28.5 C-12.4 28.6 -16 28.7 -19.6 29.1 C-23.1 29.5 -26.8 29.7 -30.3 30.2 C-31.3 30.4 -31.9 31.3 -31.8 32.3 C-31.6 33.3 -30.7 33.9 -29.7 33.8 Z "/></g><g transform="translate(98.4 -3.3) scale(1.720)"><path d="M-32.2 -18.3 C-29.2 -17.9 -26.2 -17.2 -23.2 -16.9 C-20.2 -16.6 -17.2 -16.3 -14.2 -16.1 C-11.2 -15.9 -8.1 -16.1 -5.1 -16 C-2.1 -15.8 1 -16.1 4 -16.1 C7 -16.1 10 -16.2 13 -16.3 C16 -16.4 19.1 -16.1 22.1 -16.2 C23 -16.3 23.8 -17.1 23.8 -18.1 C23.7 -19 22.9 -19.8 21.9 -19.8 C18.9 -19.6 15.9 -19.6 12.9 -19.5 C9.9 -19.5 7 -19.2 4 -19.2 C1 -19.2 -2 -18.9 -5 -19 C-8 -19.1 -11 -19.2 -14 -19.4 C-16.9 -19.7 -19.9 -20.2 -22.9 -20.5 C-25.9 -20.8 -28.8 -21.4 -31.8 -21.7 C-32.8 -21.9 -33.6 -21.2 -33.7 -20.2 C-33.9 -19.2 -33.2 -18.4 -32.2 -18.3 Z M-25.1 -8.2 C-22 -8 -18.7 -7.3 -15.6 -7.2 C-12.4 -7 -9.1 -6.9 -5.9 -6.8 C-2.7 -6.8 0.5 -7.3 3.7 -7.4 C6.9 -7.6 10.1 -8.3 13.3 -8.7 C16.4 -9 19.6 -9.5 22.8 -10 C25.9 -10.5 29.2 -10.7 32.3 -11.3 C33.3 -11.4 33.9 -12.4 33.7 -13.3 C33.6 -14.3 32.6 -14.9 31.7 -14.7 C28.5 -14.1 25.4 -13.7 22.3 -13.2 C19.1 -12.7 16.1 -12 12.9 -11.7 C9.8 -11.3 6.7 -10.7 3.6 -10.5 C0.4 -10.3 -2.7 -10.2 -5.9 -10.2 C-9.1 -10.2 -12.2 -10.6 -15.4 -10.8 C-18.6 -10.9 -21.7 -11.5 -24.9 -11.8 C-25.8 -11.9 -26.7 -11.1 -26.8 -10.1 C-26.9 -9.2 -26.1 -8.3 -25.1 -8.2 Z M-31.4 1.8 C-28.8 2.3 -26.3 3.3 -23.7 3.7 C-21.2 4.1 -18.5 4.6 -16 4.8 C-13.4 5.1 -10.7 4.8 -8.1 4.9 C-5.5 4.9 -2.9 4.4 -0.3 4.2 C2.3 4.1 4.9 3.7 7.5 3.4 C10 3.1 12.7 3.2 15.3 2.8 C16.3 2.6 16.9 1.7 16.8 0.7 C16.6 -0.3 15.7 -0.9 14.7 -0.8 C12.1 -0.3 9.6 -0.1 7.1 0.2 C4.5 0.5 2.1 1.1 -0.5 1.3 C-3 1.4 -5.5 1.9 -8 1.9 C-10.6 1.8 -13.1 1.8 -15.6 1.5 C-18.2 1.2 -20.6 0.5 -23.1 0.1 C-25.7 -0.3 -28.1 -1.2 -30.6 -1.8 C-31.6 -2 -32.5 -1.3 -32.8 -0.4 C-33 0.6 -32.3 1.5 -31.4 1.8 Z M-18.3 11.7 C-15.6 12.3 -12.8 13.1 -10.1 13.5 C-7.3 13.9 -4.4 14.3 -1.7 14.5 C1.1 14.7 4 14.4 6.7 14.3 C9.4 14.2 12.3 13.5 15 13.1 C17.7 12.7 20.5 12.1 23.2 11.5 C25.9 10.9 28.8 10.5 31.5 9.7 C32.4 9.4 33 8.4 32.7 7.5 C32.4 6.6 31.4 6 30.5 6.3 C27.8 7.1 25.2 7.7 22.5 8.3 C19.8 8.9 17.3 9.7 14.5 10.1 C11.8 10.5 9.3 11.1 6.6 11.2 C3.9 11.3 1.3 11.3 -1.5 11.2 C-4.2 11 -6.8 10.4 -9.6 10 C-12.3 9.6 -14.9 8.8 -17.7 8.3 C-18.6 8.1 -19.5 8.7 -19.7 9.7 C-19.9 10.6 -19.3 11.5 -18.3 11.7 Z M-28.6 21.7 C-25.5 22.8 -22.4 24.2 -19.2 25.1 C-16.1 26 -12.8 26.9 -9.6 27.5 C-6.5 28.1 -3 28.1 0.1 28.3 C3.3 28.5 6.7 28 9.9 27.7 C13.1 27.5 16.4 26.9 19.6 26.4 C22.8 25.8 26.2 25.5 29.4 24.7 C30.4 24.5 31 23.5 30.7 22.6 C30.5 21.6 29.5 21 28.6 21.3 C25.4 22.1 22.2 22.6 19 23.1 C15.8 23.7 12.8 24.5 9.6 24.7 C6.5 25 3.5 25.4 0.3 25.2 C-2.9 25.1 -5.9 24.8 -9 24.2 C-12.2 23.6 -15.1 22.5 -18.2 21.6 C-21.4 20.8 -24.3 19.4 -27.4 18.3 C-28.3 18 -29.3 18.5 -29.7 19.4 C-30 20.3 -29.5 21.3 -28.6 21.7 Z "/></g><g transform="translate(180.1 0.0) scale(2.240)"><path d="M-18.7 -33.4 C-19.6 -30 -20.7 -26.7 -21.4 -23.2 C-22.2 -19.8 -22.9 -16.3 -23.5 -12.9 C-24.1 -9.5 -24.2 -5.9 -24.5 -2.4 C-24.9 1 -24.7 4.6 -24.8 8.1 C-24.9 11.5 -24.9 15.1 -24.8 18.6 C-24.7 22 -24.9 25.6 -24.8 29.1 C-24.7 30.1 -23.9 30.8 -22.9 30.8 C-21.9 30.7 -21.2 29.9 -21.2 28.9 C-21.4 25.4 -21.5 22 -21.5 18.5 C-21.6 15 -21.9 11.6 -21.8 8.1 C-21.7 4.7 -21.8 1.3 -21.5 -2.1 C-21.1 -5.6 -20.8 -8.9 -20.2 -12.4 C-19.6 -15.8 -18.7 -19.1 -18 -22.5 C-17.2 -25.9 -16.2 -29.2 -15.3 -32.6 C-15.1 -33.5 -15.6 -34.5 -16.6 -34.7 C-17.5 -34.9 -18.5 -34.4 -18.7 -33.4 Z M-10.5 -27.7 C-10 -24.4 -10 -21 -9.5 -17.6 C-9.1 -14.2 -8.7 -10.9 -8.4 -7.5 C-8.1 -4.2 -7.4 -0.9 -7.2 2.5 C-7 5.9 -6.5 9.2 -6.4 12.6 C-6.3 16 -6.4 19.4 -6.4 22.8 C-6.4 26.2 -6.9 29.5 -7 32.9 C-7.1 33.9 -6.3 34.7 -5.3 34.8 C-4.3 34.8 -3.5 34 -3.5 33.1 C-3.4 29.7 -3.2 26.2 -3.2 22.8 C-3.1 19.4 -3.3 16 -3.4 12.6 C-3.5 9.2 -3.9 5.7 -4.1 2.3 C-4.3 -1.1 -4.7 -4.5 -5 -7.9 C-5.4 -11.2 -5.5 -14.7 -6 -18.1 C-6.4 -21.4 -6.5 -24.9 -7 -28.3 C-7.1 -29.2 -8 -29.9 -9 -29.8 C-10 -29.6 -10.6 -28.7 -10.5 -27.7 Z M5.5 -32.3 C4.9 -29.2 3.8 -26 3.3 -22.8 C2.7 -19.6 2.2 -16.3 1.8 -13.1 C1.4 -9.9 1.5 -6.5 1.2 -3.3 C1 -0.1 1.3 3.3 1.2 6.5 C1.1 9.7 1.1 13 1.2 16.3 C1.2 19.5 0.8 22.8 0.9 26.1 C1 27.1 1.8 27.8 2.8 27.8 C3.8 27.8 4.6 26.9 4.5 25.9 C4.4 22.7 4.4 19.5 4.4 16.2 C4.4 13 4.1 9.8 4.2 6.6 C4.2 3.3 4 0.2 4.2 -3.1 C4.5 -6.3 4.7 -9.5 5.1 -12.7 C5.5 -15.9 6.3 -19 6.9 -22.2 C7.4 -25.4 8.4 -28.5 9 -31.7 C9.2 -32.6 8.6 -33.6 7.6 -33.8 C6.7 -34 5.7 -33.3 5.5 -32.3 Z M14 -25.5 C14.9 -22.4 15.4 -19.2 16.2 -16 C17 -12.8 17.7 -9.8 18.3 -6.6 C19 -3.4 19.8 -0.4 20.2 2.9 C20.6 6.1 21.1 9.2 21.2 12.4 C21.4 15.7 21.3 18.9 21.3 22.1 C21.2 25.4 20.8 28.6 20.6 31.9 C20.6 32.9 21.3 33.7 22.3 33.8 C23.2 33.8 24.1 33.1 24.1 32.1 C24.3 28.8 24.5 25.5 24.6 22.2 C24.6 18.9 24.4 15.6 24.3 12.3 C24.2 9.1 23.6 5.7 23.2 2.5 C22.9 -0.7 22.2 -4 21.6 -7.2 C21 -10.4 20.4 -13.7 19.6 -16.9 C18.8 -20 18.2 -23.3 17.3 -26.5 C17.1 -27.4 16.1 -28 15.1 -27.7 C14.2 -27.4 13.7 -26.4 14 -25.5 Z "/></g><g transform="translate(276.0 5.5) scale(1.880)"><path d="M-27.8 -4.7 C-24.4 -8 -20.5 -10.8 -17 -13.4 C-13.4 -16 -10.3 -18.3 -6.7 -19.7 C-3.2 -21.1 -0.6 -22.1 2.8 -22 C6.3 -21.8 9.1 -21.2 12.5 -19.4 C15.9 -17.6 18.9 -15 22.2 -12.1 C25.5 -9.1 28.6 -5.5 31.7 -1.9 C32.3 -1.1 33.4 -1 34.1 -1.7 C34.9 -2.3 35 -3.4 34.3 -4.1 C31.3 -7.7 27.7 -11.6 24.4 -14.5 C21 -17.4 17.3 -20.3 13.9 -22.1 C10.5 -23.9 6.4 -24.9 3 -25.1 C-0.4 -25.2 -4.5 -24.2 -8 -22.8 C-11.5 -21.4 -15.5 -18.9 -19.1 -16.3 C-22.6 -13.7 -26.9 -10.5 -30.2 -7.3 C-30.9 -6.6 -30.9 -5.5 -30.3 -4.8 C-29.6 -4.1 -28.5 -4.1 -27.8 -4.7 Z M-31.9 4.9 C-28.5 2.3 -24.8 0.3 -21.2 -1.8 C-17.6 -3.8 -14.5 -5.6 -11 -6.7 C-7.5 -7.8 -4.8 -8.8 -1.3 -8.6 C2.1 -8.4 5.1 -8 8.4 -6.6 C11.8 -5.1 14.9 -3 18.2 -0.6 C21.6 1.8 24.7 4.8 27.8 7.8 C28.5 8.5 29.6 8.4 30.3 7.7 C31 7 30.9 5.9 30.2 5.2 C27.1 2.3 23.5 -0.8 20.1 -3.2 C16.8 -5.6 13 -7.9 9.6 -9.3 C6.2 -10.8 2.3 -11.5 -1.2 -11.6 C-4.6 -11.8 -8.5 -11 -12 -9.9 C-15.5 -8.8 -19.4 -7 -23 -4.9 C-26.6 -2.9 -30.7 -0.5 -34.1 2.1 C-34.9 2.7 -35 3.8 -34.4 4.6 C-33.8 5.4 -32.7 5.5 -31.9 4.9 Z M-30.1 14.6 C-26.6 12.6 -22.9 11.3 -19.3 9.7 C-15.7 8.2 -12.6 6.9 -9 6.1 C-5.5 5.3 -2.5 4.4 1 4.6 C4.5 4.7 7.6 5 11.1 6.1 C14.5 7.2 17.7 8.9 21.2 10.8 C24.6 12.7 27.7 15.1 31 17.5 C31.8 18 32.9 17.8 33.5 17 C34 16.2 33.8 15.1 33 14.5 C29.8 12.2 26.1 9.8 22.7 7.9 C19.3 6.1 15.5 4.4 12 3.3 C8.5 2.2 4.6 1.7 1.1 1.6 C-2.4 1.4 -6.2 2 -9.8 2.8 C-13.3 3.6 -17.2 4.9 -20.8 6.4 C-24.3 7.9 -28.4 9.4 -31.9 11.4 C-32.8 11.9 -33.1 13 -32.6 13.9 C-32.1 14.8 -31 15.1 -30.1 14.6 Z M-31.4 24.1 C-27.9 22.9 -24.4 22.1 -20.9 21.2 C-17.4 20.2 -14.2 19.4 -10.7 18.9 C-7.3 18.4 -4.2 17.9 -0.7 18.1 C2.7 18.2 5.9 18.4 9.3 19.2 C12.7 20 16 21.2 19.4 22.5 C22.7 23.8 25.9 25.5 29.2 27.1 C30.1 27.5 31.2 27.1 31.6 26.3 C32 25.4 31.6 24.3 30.8 23.9 C27.5 22.3 23.9 20.7 20.5 19.4 C17.1 18.1 13.4 17.1 10 16.2 C6.6 15.4 2.9 15.1 -0.6 15 C-4 14.8 -7.7 15.1 -11.2 15.6 C-14.7 16.1 -18.4 16.8 -21.9 17.8 C-25.4 18.7 -29.2 19.6 -32.6 20.9 C-33.5 21.2 -34 22.2 -33.6 23.1 C-33.3 24 -32.3 24.5 -31.4 24.1 Z M-29.7 33.8 C-26.2 33.2 -22.7 33.1 -19.2 32.7 C-15.6 32.3 -12.3 32 -8.7 31.8 C-5.2 31.6 -1.9 31.2 1.6 31.4 C5.1 31.5 8.5 31.5 12 32 C15.5 32.5 18.8 33.2 22.3 33.9 C25.8 34.6 29.1 35.8 32.6 36.7 C33.5 37 34.5 36.4 34.7 35.4 C35 34.5 34.4 33.5 33.4 33.3 C30 32.4 26.5 31.4 23 30.7 C19.5 30 15.9 29.5 12.4 29 C8.9 28.5 5.2 28.5 1.7 28.3 C-1.8 28.2 -5.4 28.3 -8.9 28.5 C-12.4 28.6 -16 28.7 -19.6 29.1 C-23.1 29.5 -26.8 29.7 -30.3 30.2 C-31.3 30.4 -31.9 31.3 -31.8 32.3 C-31.6 33.3 -30.7 33.9 -29.7 33.8 Z "/></g><g transform="translate(374.4 -3.3) scale(2.120)"><path d="M-32.2 -18.3 C-29.2 -17.9 -26.2 -17.2 -23.2 -16.9 C-20.2 -16.6 -17.2 -16.3 -14.2 -16.1 C-11.2 -15.9 -8.1 -16.1 -5.1 -16 C-2.1 -15.8 1 -16.1 4 -16.1 C7 -16.1 10 -16.2 13 -16.3 C16 -16.4 19.1 -16.1 22.1 -16.2 C23 -16.3 23.8 -17.1 23.8 -18.1 C23.7 -19 22.9 -19.8 21.9 -19.8 C18.9 -19.6 15.9 -19.6 12.9 -19.5 C9.9 -19.5 7 -19.2 4 -19.2 C1 -19.2 -2 -18.9 -5 -19 C-8 -19.1 -11 -19.2 -14 -19.4 C-16.9 -19.7 -19.9 -20.2 -22.9 -20.5 C-25.9 -20.8 -28.8 -21.4 -31.8 -21.7 C-32.8 -21.9 -33.6 -21.2 -33.7 -20.2 C-33.9 -19.2 -33.2 -18.4 -32.2 -18.3 Z M-25.1 -8.2 C-22 -8 -18.7 -7.3 -15.6 -7.2 C-12.4 -7 -9.1 -6.9 -5.9 -6.8 C-2.7 -6.8 0.5 -7.3 3.7 -7.4 C6.9 -7.6 10.1 -8.3 13.3 -8.7 C16.4 -9 19.6 -9.5 22.8 -10 C25.9 -10.5 29.2 -10.7 32.3 -11.3 C33.3 -11.4 33.9 -12.4 33.7 -13.3 C33.6 -14.3 32.6 -14.9 31.7 -14.7 C28.5 -14.1 25.4 -13.7 22.3 -13.2 C19.1 -12.7 16.1 -12 12.9 -11.7 C9.8 -11.3 6.7 -10.7 3.6 -10.5 C0.4 -10.3 -2.7 -10.2 -5.9 -10.2 C-9.1 -10.2 -12.2 -10.6 -15.4 -10.8 C-18.6 -10.9 -21.7 -11.5 -24.9 -11.8 C-25.8 -11.9 -26.7 -11.1 -26.8 -10.1 C-26.9 -9.2 -26.1 -8.3 -25.1 -8.2 Z M-31.4 1.8 C-28.8 2.3 -26.3 3.3 -23.7 3.7 C-21.2 4.1 -18.5 4.6 -16 4.8 C-13.4 5.1 -10.7 4.8 -8.1 4.9 C-5.5 4.9 -2.9 4.4 -0.3 4.2 C2.3 4.1 4.9 3.7 7.5 3.4 C10 3.1 12.7 3.2 15.3 2.8 C16.3 2.6 16.9 1.7 16.8 0.7 C16.6 -0.3 15.7 -0.9 14.7 -0.8 C12.1 -0.3 9.6 -0.1 7.1 0.2 C4.5 0.5 2.1 1.1 -0.5 1.3 C-3 1.4 -5.5 1.9 -8 1.9 C-10.6 1.8 -13.1 1.8 -15.6 1.5 C-18.2 1.2 -20.6 0.5 -23.1 0.1 C-25.7 -0.3 -28.1 -1.2 -30.6 -1.8 C-31.6 -2 -32.5 -1.3 -32.8 -0.4 C-33 0.6 -32.3 1.5 -31.4 1.8 Z M-18.3 11.7 C-15.6 12.3 -12.8 13.1 -10.1 13.5 C-7.3 13.9 -4.4 14.3 -1.7 14.5 C1.1 14.7 4 14.4 6.7 14.3 C9.4 14.2 12.3 13.5 15 13.1 C17.7 12.7 20.5 12.1 23.2 11.5 C25.9 10.9 28.8 10.5 31.5 9.7 C32.4 9.4 33 8.4 32.7 7.5 C32.4 6.6 31.4 6 30.5 6.3 C27.8 7.1 25.2 7.7 22.5 8.3 C19.8 8.9 17.3 9.7 14.5 10.1 C11.8 10.5 9.3 11.1 6.6 11.2 C3.9 11.3 1.3 11.3 -1.5 11.2 C-4.2 11 -6.8 10.4 -9.6 10 C-12.3 9.6 -14.9 8.8 -17.7 8.3 C-18.6 8.1 -19.5 8.7 -19.7 9.7 C-19.9 10.6 -19.3 11.5 -18.3 11.7 Z M-28.6 21.7 C-25.5 22.8 -22.4 24.2 -19.2 25.1 C-16.1 26 -12.8 26.9 -9.6 27.5 C-6.5 28.1 -3 28.1 0.1 28.3 C3.3 28.5 6.7 28 9.9 27.7 C13.1 27.5 16.4 26.9 19.6 26.4 C22.8 25.8 26.2 25.5 29.4 24.7 C30.4 24.5 31 23.5 30.7 22.6 C30.5 21.6 29.5 21 28.6 21.3 C25.4 22.1 22.2 22.6 19 23.1 C15.8 23.7 12.8 24.5 9.6 24.7 C6.5 25 3.5 25.4 0.3 25.2 C-2.9 25.1 -5.9 24.8 -9 24.2 C-12.2 23.6 -15.1 22.5 -18.2 21.6 C-21.4 20.8 -24.3 19.4 -27.4 18.3 C-28.3 18 -29.3 18.5 -29.7 19.4 C-30 20.3 -29.5 21.3 -28.6 21.7 Z "/></g><g transform="translate(42.1 92.0) scale(2.000)"><path d="M-18.7 -33.4 C-19.6 -30 -20.7 -26.7 -21.4 -23.2 C-22.2 -19.8 -22.9 -16.3 -23.5 -12.9 C-24.1 -9.5 -24.2 -5.9 -24.5 -2.4 C-24.9 1 -24.7 4.6 -24.8 8.1 C-24.9 11.5 -24.9 15.1 -24.8 18.6 C-24.7 22 -24.9 25.6 -24.8 29.1 C-24.7 30.1 -23.9 30.8 -22.9 30.8 C-21.9 30.7 -21.2 29.9 -21.2 28.9 C-21.4 25.4 -21.5 22 -21.5 18.5 C-21.6 15 -21.9 11.6 -21.8 8.1 C-21.7 4.7 -21.8 1.3 -21.5 -2.1 C-21.1 -5.6 -20.8 -8.9 -20.2 -12.4 C-19.6 -15.8 -18.7 -19.1 -18 -22.5 C-17.2 -25.9 -16.2 -29.2 -15.3 -32.6 C-15.1 -33.5 -15.6 -34.5 -16.6 -34.7 C-17.5 -34.9 -18.5 -34.4 -18.7 -33.4 Z M-10.5 -27.7 C-10 -24.4 -10 -21 -9.5 -17.6 C-9.1 -14.2 -8.7 -10.9 -8.4 -7.5 C-8.1 -4.2 -7.4 -0.9 -7.2 2.5 C-7 5.9 -6.5 9.2 -6.4 12.6 C-6.3 16 -6.4 19.4 -6.4 22.8 C-6.4 26.2 -6.9 29.5 -7 32.9 C-7.1 33.9 -6.3 34.7 -5.3 34.8 C-4.3 34.8 -3.5 34 -3.5 33.1 C-3.4 29.7 -3.2 26.2 -3.2 22.8 C-3.1 19.4 -3.3 16 -3.4 12.6 C-3.5 9.2 -3.9 5.7 -4.1 2.3 C-4.3 -1.1 -4.7 -4.5 -5 -7.9 C-5.4 -11.2 -5.5 -14.7 -6 -18.1 C-6.4 -21.4 -6.5 -24.9 -7 -28.3 C-7.1 -29.2 -8 -29.9 -9 -29.8 C-10 -29.6 -10.6 -28.7 -10.5 -27.7 Z M5.5 -32.3 C4.9 -29.2 3.8 -26 3.3 -22.8 C2.7 -19.6 2.2 -16.3 1.8 -13.1 C1.4 -9.9 1.5 -6.5 1.2 -3.3 C1 -0.1 1.3 3.3 1.2 6.5 C1.1 9.7 1.1 13 1.2 16.3 C1.2 19.5 0.8 22.8 0.9 26.1 C1 27.1 1.8 27.8 2.8 27.8 C3.8 27.8 4.6 26.9 4.5 25.9 C4.4 22.7 4.4 19.5 4.4 16.2 C4.4 13 4.1 9.8 4.2 6.6 C4.2 3.3 4 0.2 4.2 -3.1 C4.5 -6.3 4.7 -9.5 5.1 -12.7 C5.5 -15.9 6.3 -19 6.9 -22.2 C7.4 -25.4 8.4 -28.5 9 -31.7 C9.2 -32.6 8.6 -33.6 7.6 -33.8 C6.7 -34 5.7 -33.3 5.5 -32.3 Z M14 -25.5 C14.9 -22.4 15.4 -19.2 16.2 -16 C17 -12.8 17.7 -9.8 18.3 -6.6 C19 -3.4 19.8 -0.4 20.2 2.9 C20.6 6.1 21.1 9.2 21.2 12.4 C21.4 15.7 21.3 18.9 21.3 22.1 C21.2 25.4 20.8 28.6 20.6 31.9 C20.6 32.9 21.3 33.7 22.3 33.8 C23.2 33.8 24.1 33.1 24.1 32.1 C24.3 28.8 24.5 25.5 24.6 22.2 C24.6 18.9 24.4 15.6 24.3 12.3 C24.2 9.1 23.6 5.7 23.2 2.5 C22.9 -0.7 22.2 -4 21.6 -7.2 C21 -10.4 20.4 -13.7 19.6 -16.9 C18.8 -20 18.2 -23.3 17.3 -26.5 C17.1 -27.4 16.1 -28 15.1 -27.7 C14.2 -27.4 13.7 -26.4 14 -25.5 Z "/></g><g transform="translate(138.0 97.5) scale(1.720)"><path d="M-27.8 -4.7 C-24.4 -8 -20.5 -10.8 -17 -13.4 C-13.4 -16 -10.3 -18.3 -6.7 -19.7 C-3.2 -21.1 -0.6 -22.1 2.8 -22 C6.3 -21.8 9.1 -21.2 12.5 -19.4 C15.9 -17.6 18.9 -15 22.2 -12.1 C25.5 -9.1 28.6 -5.5 31.7 -1.9 C32.3 -1.1 33.4 -1 34.1 -1.7 C34.9 -2.3 35 -3.4 34.3 -4.1 C31.3 -7.7 27.7 -11.6 24.4 -14.5 C21 -17.4 17.3 -20.3 13.9 -22.1 C10.5 -23.9 6.4 -24.9 3 -25.1 C-0.4 -25.2 -4.5 -24.2 -8 -22.8 C-11.5 -21.4 -15.5 -18.9 -19.1 -16.3 C-22.6 -13.7 -26.9 -10.5 -30.2 -7.3 C-30.9 -6.6 -30.9 -5.5 -30.3 -4.8 C-29.6 -4.1 -28.5 -4.1 -27.8 -4.7 Z M-31.9 4.9 C-28.5 2.3 -24.8 0.3 -21.2 -1.8 C-17.6 -3.8 -14.5 -5.6 -11 -6.7 C-7.5 -7.8 -4.8 -8.8 -1.3 -8.6 C2.1 -8.4 5.1 -8 8.4 -6.6 C11.8 -5.1 14.9 -3 18.2 -0.6 C21.6 1.8 24.7 4.8 27.8 7.8 C28.5 8.5 29.6 8.4 30.3 7.7 C31 7 30.9 5.9 30.2 5.2 C27.1 2.3 23.5 -0.8 20.1 -3.2 C16.8 -5.6 13 -7.9 9.6 -9.3 C6.2 -10.8 2.3 -11.5 -1.2 -11.6 C-4.6 -11.8 -8.5 -11 -12 -9.9 C-15.5 -8.8 -19.4 -7 -23 -4.9 C-26.6 -2.9 -30.7 -0.5 -34.1 2.1 C-34.9 2.7 -35 3.8 -34.4 4.6 C-33.8 5.4 -32.7 5.5 -31.9 4.9 Z M-30.1 14.6 C-26.6 12.6 -22.9 11.3 -19.3 9.7 C-15.7 8.2 -12.6 6.9 -9 6.1 C-5.5 5.3 -2.5 4.4 1 4.6 C4.5 4.7 7.6 5 11.1 6.1 C14.5 7.2 17.7 8.9 21.2 10.8 C24.6 12.7 27.7 15.1 31 17.5 C31.8 18 32.9 17.8 33.5 17 C34 16.2 33.8 15.1 33 14.5 C29.8 12.2 26.1 9.8 22.7 7.9 C19.3 6.1 15.5 4.4 12 3.3 C8.5 2.2 4.6 1.7 1.1 1.6 C-2.4 1.4 -6.2 2 -9.8 2.8 C-13.3 3.6 -17.2 4.9 -20.8 6.4 C-24.3 7.9 -28.4 9.4 -31.9 11.4 C-32.8 11.9 -33.1 13 -32.6 13.9 C-32.1 14.8 -31 15.1 -30.1 14.6 Z M-31.4 24.1 C-27.9 22.9 -24.4 22.1 -20.9 21.2 C-17.4 20.2 -14.2 19.4 -10.7 18.9 C-7.3 18.4 -4.2 17.9 -0.7 18.1 C2.7 18.2 5.9 18.4 9.3 19.2 C12.7 20 16 21.2 19.4 22.5 C22.7 23.8 25.9 25.5 29.2 27.1 C30.1 27.5 31.2 27.1 31.6 26.3 C32 25.4 31.6 24.3 30.8 23.9 C27.5 22.3 23.9 20.7 20.5 19.4 C17.1 18.1 13.4 17.1 10 16.2 C6.6 15.4 2.9 15.1 -0.6 15 C-4 14.8 -7.7 15.1 -11.2 15.6 C-14.7 16.1 -18.4 16.8 -21.9 17.8 C-25.4 18.7 -29.2 19.6 -32.6 20.9 C-33.5 21.2 -34 22.2 -33.6 23.1 C-33.3 24 -32.3 24.5 -31.4 24.1 Z M-29.7 33.8 C-26.2 33.2 -22.7 33.1 -19.2 32.7 C-15.6 32.3 -12.3 32 -8.7 31.8 C-5.2 31.6 -1.9 31.2 1.6 31.4 C5.1 31.5 8.5 31.5 12 32 C15.5 32.5 18.8 33.2 22.3 33.9 C25.8 34.6 29.1 35.8 32.6 36.7 C33.5 37 34.5 36.4 34.7 35.4 C35 34.5 34.4 33.5 33.4 33.3 C30 32.4 26.5 31.4 23 30.7 C19.5 30 15.9 29.5 12.4 29 C8.9 28.5 5.2 28.5 1.7 28.3 C-1.8 28.2 -5.4 28.3 -8.9 28.5 C-12.4 28.6 -16 28.7 -19.6 29.1 C-23.1 29.5 -26.8 29.7 -30.3 30.2 C-31.3 30.4 -31.9 31.3 -31.8 32.3 C-31.6 33.3 -30.7 33.9 -29.7 33.8 Z "/></g><g transform="translate(236.4 88.7) scale(2.240)"><path d="M-32.2 -18.3 C-29.2 -17.9 -26.2 -17.2 -23.2 -16.9 C-20.2 -16.6 -17.2 -16.3 -14.2 -16.1 C-11.2 -15.9 -8.1 -16.1 -5.1 -16 C-2.1 -15.8 1 -16.1 4 -16.1 C7 -16.1 10 -16.2 13 -16.3 C16 -16.4 19.1 -16.1 22.1 -16.2 C23 -16.3 23.8 -17.1 23.8 -18.1 C23.7 -19 22.9 -19.8 21.9 -19.8 C18.9 -19.6 15.9 -19.6 12.9 -19.5 C9.9 -19.5 7 -19.2 4 -19.2 C1 -19.2 -2 -18.9 -5 -19 C-8 -19.1 -11 -19.2 -14 -19.4 C-16.9 -19.7 -19.9 -20.2 -22.9 -20.5 C-25.9 -20.8 -28.8 -21.4 -31.8 -21.7 C-32.8 -21.9 -33.6 -21.2 -33.7 -20.2 C-33.9 -19.2 -33.2 -18.4 -32.2 -18.3 Z M-25.1 -8.2 C-22 -8 -18.7 -7.3 -15.6 -7.2 C-12.4 -7 -9.1 -6.9 -5.9 -6.8 C-2.7 -6.8 0.5 -7.3 3.7 -7.4 C6.9 -7.6 10.1 -8.3 13.3 -8.7 C16.4 -9 19.6 -9.5 22.8 -10 C25.9 -10.5 29.2 -10.7 32.3 -11.3 C33.3 -11.4 33.9 -12.4 33.7 -13.3 C33.6 -14.3 32.6 -14.9 31.7 -14.7 C28.5 -14.1 25.4 -13.7 22.3 -13.2 C19.1 -12.7 16.1 -12 12.9 -11.7 C9.8 -11.3 6.7 -10.7 3.6 -10.5 C0.4 -10.3 -2.7 -10.2 -5.9 -10.2 C-9.1 -10.2 -12.2 -10.6 -15.4 -10.8 C-18.6 -10.9 -21.7 -11.5 -24.9 -11.8 C-25.8 -11.9 -26.7 -11.1 -26.8 -10.1 C-26.9 -9.2 -26.1 -8.3 -25.1 -8.2 Z M-31.4 1.8 C-28.8 2.3 -26.3 3.3 -23.7 3.7 C-21.2 4.1 -18.5 4.6 -16 4.8 C-13.4 5.1 -10.7 4.8 -8.1 4.9 C-5.5 4.9 -2.9 4.4 -0.3 4.2 C2.3 4.1 4.9 3.7 7.5 3.4 C10 3.1 12.7 3.2 15.3 2.8 C16.3 2.6 16.9 1.7 16.8 0.7 C16.6 -0.3 15.7 -0.9 14.7 -0.8 C12.1 -0.3 9.6 -0.1 7.1 0.2 C4.5 0.5 2.1 1.1 -0.5 1.3 C-3 1.4 -5.5 1.9 -8 1.9 C-10.6 1.8 -13.1 1.8 -15.6 1.5 C-18.2 1.2 -20.6 0.5 -23.1 0.1 C-25.7 -0.3 -28.1 -1.2 -30.6 -1.8 C-31.6 -2 -32.5 -1.3 -32.8 -0.4 C-33 0.6 -32.3 1.5 -31.4 1.8 Z M-18.3 11.7 C-15.6 12.3 -12.8 13.1 -10.1 13.5 C-7.3 13.9 -4.4 14.3 -1.7 14.5 C1.1 14.7 4 14.4 6.7 14.3 C9.4 14.2 12.3 13.5 15 13.1 C17.7 12.7 20.5 12.1 23.2 11.5 C25.9 10.9 28.8 10.5 31.5 9.7 C32.4 9.4 33 8.4 32.7 7.5 C32.4 6.6 31.4 6 30.5 6.3 C27.8 7.1 25.2 7.7 22.5 8.3 C19.8 8.9 17.3 9.7 14.5 10.1 C11.8 10.5 9.3 11.1 6.6 11.2 C3.9 11.3 1.3 11.3 -1.5 11.2 C-4.2 11 -6.8 10.4 -9.6 10 C-12.3 9.6 -14.9 8.8 -17.7 8.3 C-18.6 8.1 -19.5 8.7 -19.7 9.7 C-19.9 10.6 -19.3 11.5 -18.3 11.7 Z M-28.6 21.7 C-25.5 22.8 -22.4 24.2 -19.2 25.1 C-16.1 26 -12.8 26.9 -9.6 27.5 C-6.5 28.1 -3 28.1 0.1 28.3 C3.3 28.5 6.7 28 9.9 27.7 C13.1 27.5 16.4 26.9 19.6 26.4 C22.8 25.8 26.2 25.5 29.4 24.7 C30.4 24.5 31 23.5 30.7 22.6 C30.5 21.6 29.5 21 28.6 21.3 C25.4 22.1 22.2 22.6 19 23.1 C15.8 23.7 12.8 24.5 9.6 24.7 C6.5 25 3.5 25.4 0.3 25.2 C-2.9 25.1 -5.9 24.8 -9 24.2 C-12.2 23.6 -15.1 22.5 -18.2 21.6 C-21.4 20.8 -24.3 19.4 -27.4 18.3 C-28.3 18 -29.3 18.5 -29.7 19.4 C-30 20.3 -29.5 21.3 -28.6 21.7 Z "/></g><g transform="translate(318.1 92.0) scale(1.880)"><path d="M-18.7 -33.4 C-19.6 -30 -20.7 -26.7 -21.4 -23.2 C-22.2 -19.8 -22.9 -16.3 -23.5 -12.9 C-24.1 -9.5 -24.2 -5.9 -24.5 -2.4 C-24.9 1 -24.7 4.6 -24.8 8.1 C-24.9 11.5 -24.9 15.1 -24.8 18.6 C-24.7 22 -24.9 25.6 -24.8 29.1 C-24.7 30.1 -23.9 30.8 -22.9 30.8 C-21.9 30.7 -21.2 29.9 -21.2 28.9 C-21.4 25.4 -21.5 22 -21.5 18.5 C-21.6 15 -21.9 11.6 -21.8 8.1 C-21.7 4.7 -21.8 1.3 -21.5 -2.1 C-21.1 -5.6 -20.8 -8.9 -20.2 -12.4 C-19.6 -15.8 -18.7 -19.1 -18 -22.5 C-17.2 -25.9 -16.2 -29.2 -15.3 -32.6 C-15.1 -33.5 -15.6 -34.5 -16.6 -34.7 C-17.5 -34.9 -18.5 -34.4 -18.7 -33.4 Z M-10.5 -27.7 C-10 -24.4 -10 -21 -9.5 -17.6 C-9.1 -14.2 -8.7 -10.9 -8.4 -7.5 C-8.1 -4.2 -7.4 -0.9 -7.2 2.5 C-7 5.9 -6.5 9.2 -6.4 12.6 C-6.3 16 -6.4 19.4 -6.4 22.8 C-6.4 26.2 -6.9 29.5 -7 32.9 C-7.1 33.9 -6.3 34.7 -5.3 34.8 C-4.3 34.8 -3.5 34 -3.5 33.1 C-3.4 29.7 -3.2 26.2 -3.2 22.8 C-3.1 19.4 -3.3 16 -3.4 12.6 C-3.5 9.2 -3.9 5.7 -4.1 2.3 C-4.3 -1.1 -4.7 -4.5 -5 -7.9 C-5.4 -11.2 -5.5 -14.7 -6 -18.1 C-6.4 -21.4 -6.5 -24.9 -7 -28.3 C-7.1 -29.2 -8 -29.9 -9 -29.8 C-10 -29.6 -10.6 -28.7 -10.5 -27.7 Z M5.5 -32.3 C4.9 -29.2 3.8 -26 3.3 -22.8 C2.7 -19.6 2.2 -16.3 1.8 -13.1 C1.4 -9.9 1.5 -6.5 1.2 -3.3 C1 -0.1 1.3 3.3 1.2 6.5 C1.1 9.7 1.1 13 1.2 16.3 C1.2 19.5 0.8 22.8 0.9 26.1 C1 27.1 1.8 27.8 2.8 27.8 C3.8 27.8 4.6 26.9 4.5 25.9 C4.4 22.7 4.4 19.5 4.4 16.2 C4.4 13 4.1 9.8 4.2 6.6 C4.2 3.3 4 0.2 4.2 -3.1 C4.5 -6.3 4.7 -9.5 5.1 -12.7 C5.5 -15.9 6.3 -19 6.9 -22.2 C7.4 -25.4 8.4 -28.5 9 -31.7 C9.2 -32.6 8.6 -33.6 7.6 -33.8 C6.7 -34 5.7 -33.3 5.5 -32.3 Z M14 -25.5 C14.9 -22.4 15.4 -19.2 16.2 -16 C17 -12.8 17.7 -9.8 18.3 -6.6 C19 -3.4 19.8 -0.4 20.2 2.9 C20.6 6.1 21.1 9.2 21.2 12.4 C21.4 15.7 21.3 18.9 21.3 22.1 C21.2 25.4 20.8 28.6 20.6 31.9 C20.6 32.9 21.3 33.7 22.3 33.8 C23.2 33.8 24.1 33.1 24.1 32.1 C24.3 28.8 24.5 25.5 24.6 22.2 C24.6 18.9 24.4 15.6 24.3 12.3 C24.2 9.1 23.6 5.7 23.2 2.5 C22.9 -0.7 22.2 -4 21.6 -7.2 C21 -10.4 20.4 -13.7 19.6 -16.9 C18.8 -20 18.2 -23.3 17.3 -26.5 C17.1 -27.4 16.1 -28 15.1 -27.7 C14.2 -27.4 13.7 -26.4 14 -25.5 Z "/></g><g transform="translate(414.0 97.5) scale(2.120)"><path d="M-27.8 -4.7 C-24.4 -8 -20.5 -10.8 -17 -13.4 C-13.4 -16 -10.3 -18.3 -6.7 -19.7 C-3.2 -21.1 -0.6 -22.1 2.8 -22 C6.3 -21.8 9.1 -21.2 12.5 -19.4 C15.9 -17.6 18.9 -15 22.2 -12.1 C25.5 -9.1 28.6 -5.5 31.7 -1.9 C32.3 -1.1 33.4 -1 34.1 -1.7 C34.9 -2.3 35 -3.4 34.3 -4.1 C31.3 -7.7 27.7 -11.6 24.4 -14.5 C21 -17.4 17.3 -20.3 13.9 -22.1 C10.5 -23.9 6.4 -24.9 3 -25.1 C-0.4 -25.2 -4.5 -24.2 -8 -22.8 C-11.5 -21.4 -15.5 -18.9 -19.1 -16.3 C-22.6 -13.7 -26.9 -10.5 -30.2 -7.3 C-30.9 -6.6 -30.9 -5.5 -30.3 -4.8 C-29.6 -4.1 -28.5 -4.1 -27.8 -4.7 Z M-31.9 4.9 C-28.5 2.3 -24.8 0.3 -21.2 -1.8 C-17.6 -3.8 -14.5 -5.6 -11 -6.7 C-7.5 -7.8 -4.8 -8.8 -1.3 -8.6 C2.1 -8.4 5.1 -8 8.4 -6.6 C11.8 -5.1 14.9 -3 18.2 -0.6 C21.6 1.8 24.7 4.8 27.8 7.8 C28.5 8.5 29.6 8.4 30.3 7.7 C31 7 30.9 5.9 30.2 5.2 C27.1 2.3 23.5 -0.8 20.1 -3.2 C16.8 -5.6 13 -7.9 9.6 -9.3 C6.2 -10.8 2.3 -11.5 -1.2 -11.6 C-4.6 -11.8 -8.5 -11 -12 -9.9 C-15.5 -8.8 -19.4 -7 -23 -4.9 C-26.6 -2.9 -30.7 -0.5 -34.1 2.1 C-34.9 2.7 -35 3.8 -34.4 4.6 C-33.8 5.4 -32.7 5.5 -31.9 4.9 Z M-30.1 14.6 C-26.6 12.6 -22.9 11.3 -19.3 9.7 C-15.7 8.2 -12.6 6.9 -9 6.1 C-5.5 5.3 -2.5 4.4 1 4.6 C4.5 4.7 7.6 5 11.1 6.1 C14.5 7.2 17.7 8.9 21.2 10.8 C24.6 12.7 27.7 15.1 31 17.5 C31.8 18 32.9 17.8 33.5 17 C34 16.2 33.8 15.1 33 14.5 C29.8 12.2 26.1 9.8 22.7 7.9 C19.3 6.1 15.5 4.4 12 3.3 C8.5 2.2 4.6 1.7 1.1 1.6 C-2.4 1.4 -6.2 2 -9.8 2.8 C-13.3 3.6 -17.2 4.9 -20.8 6.4 C-24.3 7.9 -28.4 9.4 -31.9 11.4 C-32.8 11.9 -33.1 13 -32.6 13.9 C-32.1 14.8 -31 15.1 -30.1 14.6 Z M-31.4 24.1 C-27.9 22.9 -24.4 22.1 -20.9 21.2 C-17.4 20.2 -14.2 19.4 -10.7 18.9 C-7.3 18.4 -4.2 17.9 -0.7 18.1 C2.7 18.2 5.9 18.4 9.3 19.2 C12.7 20 16 21.2 19.4 22.5 C22.7 23.8 25.9 25.5 29.2 27.1 C30.1 27.5 31.2 27.1 31.6 26.3 C32 25.4 31.6 24.3 30.8 23.9 C27.5 22.3 23.9 20.7 20.5 19.4 C17.1 18.1 13.4 17.1 10 16.2 C6.6 15.4 2.9 15.1 -0.6 15 C-4 14.8 -7.7 15.1 -11.2 15.6 C-14.7 16.1 -18.4 16.8 -21.9 17.8 C-25.4 18.7 -29.2 19.6 -32.6 20.9 C-33.5 21.2 -34 22.2 -33.6 23.1 C-33.3 24 -32.3 24.5 -31.4 24.1 Z M-29.7 33.8 C-26.2 33.2 -22.7 33.1 -19.2 32.7 C-15.6 32.3 -12.3 32 -8.7 31.8 C-5.2 31.6 -1.9 31.2 1.6 31.4 C5.1 31.5 8.5 31.5 12 32 C15.5 32.5 18.8 33.2 22.3 33.9 C25.8 34.6 29.1 35.8 32.6 36.7 C33.5 37 34.5 36.4 34.7 35.4 C35 34.5 34.4 33.5 33.4 33.3 C30 32.4 26.5 31.4 23 30.7 C19.5 30 15.9 29.5 12.4 29 C8.9 28.5 5.2 28.5 1.7 28.3 C-1.8 28.2 -5.4 28.3 -8.9 28.5 C-12.4 28.6 -16 28.7 -19.6 29.1 C-23.1 29.5 -26.8 29.7 -30.3 30.2 C-31.3 30.4 -31.9 31.3 -31.8 32.3 C-31.6 33.3 -30.7 33.9 -29.7 33.8 Z "/></g><g transform="translate(6.4 180.7) scale(2.000)"><path d="M-32.2 -18.3 C-29.2 -17.9 -26.2 -17.2 -23.2 -16.9 C-20.2 -16.6 -17.2 -16.3 -14.2 -16.1 C-11.2 -15.9 -8.1 -16.1 -5.1 -16 C-2.1 -15.8 1 -16.1 4 -16.1 C7 -16.1 10 -16.2 13 -16.3 C16 -16.4 19.1 -16.1 22.1 -16.2 C23 -16.3 23.8 -17.1 23.8 -18.1 C23.7 -19 22.9 -19.8 21.9 -19.8 C18.9 -19.6 15.9 -19.6 12.9 -19.5 C9.9 -19.5 7 -19.2 4 -19.2 C1 -19.2 -2 -18.9 -5 -19 C-8 -19.1 -11 -19.2 -14 -19.4 C-16.9 -19.7 -19.9 -20.2 -22.9 -20.5 C-25.9 -20.8 -28.8 -21.4 -31.8 -21.7 C-32.8 -21.9 -33.6 -21.2 -33.7 -20.2 C-33.9 -19.2 -33.2 -18.4 -32.2 -18.3 Z M-25.1 -8.2 C-22 -8 -18.7 -7.3 -15.6 -7.2 C-12.4 -7 -9.1 -6.9 -5.9 -6.8 C-2.7 -6.8 0.5 -7.3 3.7 -7.4 C6.9 -7.6 10.1 -8.3 13.3 -8.7 C16.4 -9 19.6 -9.5 22.8 -10 C25.9 -10.5 29.2 -10.7 32.3 -11.3 C33.3 -11.4 33.9 -12.4 33.7 -13.3 C33.6 -14.3 32.6 -14.9 31.7 -14.7 C28.5 -14.1 25.4 -13.7 22.3 -13.2 C19.1 -12.7 16.1 -12 12.9 -11.7 C9.8 -11.3 6.7 -10.7 3.6 -10.5 C0.4 -10.3 -2.7 -10.2 -5.9 -10.2 C-9.1 -10.2 -12.2 -10.6 -15.4 -10.8 C-18.6 -10.9 -21.7 -11.5 -24.9 -11.8 C-25.8 -11.9 -26.7 -11.1 -26.8 -10.1 C-26.9 -9.2 -26.1 -8.3 -25.1 -8.2 Z M-31.4 1.8 C-28.8 2.3 -26.3 3.3 -23.7 3.7 C-21.2 4.1 -18.5 4.6 -16 4.8 C-13.4 5.1 -10.7 4.8 -8.1 4.9 C-5.5 4.9 -2.9 4.4 -0.3 4.2 C2.3 4.1 4.9 3.7 7.5 3.4 C10 3.1 12.7 3.2 15.3 2.8 C16.3 2.6 16.9 1.7 16.8 0.7 C16.6 -0.3 15.7 -0.9 14.7 -0.8 C12.1 -0.3 9.6 -0.1 7.1 0.2 C4.5 0.5 2.1 1.1 -0.5 1.3 C-3 1.4 -5.5 1.9 -8 1.9 C-10.6 1.8 -13.1 1.8 -15.6 1.5 C-18.2 1.2 -20.6 0.5 -23.1 0.1 C-25.7 -0.3 -28.1 -1.2 -30.6 -1.8 C-31.6 -2 -32.5 -1.3 -32.8 -0.4 C-33 0.6 -32.3 1.5 -31.4 1.8 Z M-18.3 11.7 C-15.6 12.3 -12.8 13.1 -10.1 13.5 C-7.3 13.9 -4.4 14.3 -1.7 14.5 C1.1 14.7 4 14.4 6.7 14.3 C9.4 14.2 12.3 13.5 15 13.1 C17.7 12.7 20.5 12.1 23.2 11.5 C25.9 10.9 28.8 10.5 31.5 9.7 C32.4 9.4 33 8.4 32.7 7.5 C32.4 6.6 31.4 6 30.5 6.3 C27.8 7.1 25.2 7.7 22.5 8.3 C19.8 8.9 17.3 9.7 14.5 10.1 C11.8 10.5 9.3 11.1 6.6 11.2 C3.9 11.3 1.3 11.3 -1.5 11.2 C-4.2 11 -6.8 10.4 -9.6 10 C-12.3 9.6 -14.9 8.8 -17.7 8.3 C-18.6 8.1 -19.5 8.7 -19.7 9.7 C-19.9 10.6 -19.3 11.5 -18.3 11.7 Z M-28.6 21.7 C-25.5 22.8 -22.4 24.2 -19.2 25.1 C-16.1 26 -12.8 26.9 -9.6 27.5 C-6.5 28.1 -3 28.1 0.1 28.3 C3.3 28.5 6.7 28 9.9 27.7 C13.1 27.5 16.4 26.9 19.6 26.4 C22.8 25.8 26.2 25.5 29.4 24.7 C30.4 24.5 31 23.5 30.7 22.6 C30.5 21.6 29.5 21 28.6 21.3 C25.4 22.1 22.2 22.6 19 23.1 C15.8 23.7 12.8 24.5 9.6 24.7 C6.5 25 3.5 25.4 0.3 25.2 C-2.9 25.1 -5.9 24.8 -9 24.2 C-12.2 23.6 -15.1 22.5 -18.2 21.6 C-21.4 20.8 -24.3 19.4 -27.4 18.3 C-28.3 18 -29.3 18.5 -29.7 19.4 C-30 20.3 -29.5 21.3 -28.6 21.7 Z "/></g><g transform="translate(88.1 184.0) scale(1.720)"><path d="M-18.7 -33.4 C-19.6 -30 -20.7 -26.7 -21.4 -23.2 C-22.2 -19.8 -22.9 -16.3 -23.5 -12.9 C-24.1 -9.5 -24.2 -5.9 -24.5 -2.4 C-24.9 1 -24.7 4.6 -24.8 8.1 C-24.9 11.5 -24.9 15.1 -24.8 18.6 C-24.7 22 -24.9 25.6 -24.8 29.1 C-24.7 30.1 -23.9 30.8 -22.9 30.8 C-21.9 30.7 -21.2 29.9 -21.2 28.9 C-21.4 25.4 -21.5 22 -21.5 18.5 C-21.6 15 -21.9 11.6 -21.8 8.1 C-21.7 4.7 -21.8 1.3 -21.5 -2.1 C-21.1 -5.6 -20.8 -8.9 -20.2 -12.4 C-19.6 -15.8 -18.7 -19.1 -18 -22.5 C-17.2 -25.9 -16.2 -29.2 -15.3 -32.6 C-15.1 -33.5 -15.6 -34.5 -16.6 -34.7 C-17.5 -34.9 -18.5 -34.4 -18.7 -33.4 Z M-10.5 -27.7 C-10 -24.4 -10 -21 -9.5 -17.6 C-9.1 -14.2 -8.7 -10.9 -8.4 -7.5 C-8.1 -4.2 -7.4 -0.9 -7.2 2.5 C-7 5.9 -6.5 9.2 -6.4 12.6 C-6.3 16 -6.4 19.4 -6.4 22.8 C-6.4 26.2 -6.9 29.5 -7 32.9 C-7.1 33.9 -6.3 34.7 -5.3 34.8 C-4.3 34.8 -3.5 34 -3.5 33.1 C-3.4 29.7 -3.2 26.2 -3.2 22.8 C-3.1 19.4 -3.3 16 -3.4 12.6 C-3.5 9.2 -3.9 5.7 -4.1 2.3 C-4.3 -1.1 -4.7 -4.5 -5 -7.9 C-5.4 -11.2 -5.5 -14.7 -6 -18.1 C-6.4 -21.4 -6.5 -24.9 -7 -28.3 C-7.1 -29.2 -8 -29.9 -9 -29.8 C-10 -29.6 -10.6 -28.7 -10.5 -27.7 Z M5.5 -32.3 C4.9 -29.2 3.8 -26 3.3 -22.8 C2.7 -19.6 2.2 -16.3 1.8 -13.1 C1.4 -9.9 1.5 -6.5 1.2 -3.3 C1 -0.1 1.3 3.3 1.2 6.5 C1.1 9.7 1.1 13 1.2 16.3 C1.2 19.5 0.8 22.8 0.9 26.1 C1 27.1 1.8 27.8 2.8 27.8 C3.8 27.8 4.6 26.9 4.5 25.9 C4.4 22.7 4.4 19.5 4.4 16.2 C4.4 13 4.1 9.8 4.2 6.6 C4.2 3.3 4 0.2 4.2 -3.1 C4.5 -6.3 4.7 -9.5 5.1 -12.7 C5.5 -15.9 6.3 -19 6.9 -22.2 C7.4 -25.4 8.4 -28.5 9 -31.7 C9.2 -32.6 8.6 -33.6 7.6 -33.8 C6.7 -34 5.7 -33.3 5.5 -32.3 Z M14 -25.5 C14.9 -22.4 15.4 -19.2 16.2 -16 C17 -12.8 17.7 -9.8 18.3 -6.6 C19 -3.4 19.8 -0.4 20.2 2.9 C20.6 6.1 21.1 9.2 21.2 12.4 C21.4 15.7 21.3 18.9 21.3 22.1 C21.2 25.4 20.8 28.6 20.6 31.9 C20.6 32.9 21.3 33.7 22.3 33.8 C23.2 33.8 24.1 33.1 24.1 32.1 C24.3 28.8 24.5 25.5 24.6 22.2 C24.6 18.9 24.4 15.6 24.3 12.3 C24.2 9.1 23.6 5.7 23.2 2.5 C22.9 -0.7 22.2 -4 21.6 -7.2 C21 -10.4 20.4 -13.7 19.6 -16.9 C18.8 -20 18.2 -23.3 17.3 -26.5 C17.1 -27.4 16.1 -28 15.1 -27.7 C14.2 -27.4 13.7 -26.4 14 -25.5 Z "/></g><g transform="translate(184.0 189.5) scale(2.240)"><path d="M-27.8 -4.7 C-24.4 -8 -20.5 -10.8 -17 -13.4 C-13.4 -16 -10.3 -18.3 -6.7 -19.7 C-3.2 -21.1 -0.6 -22.1 2.8 -22 C6.3 -21.8 9.1 -21.2 12.5 -19.4 C15.9 -17.6 18.9 -15 22.2 -12.1 C25.5 -9.1 28.6 -5.5 31.7 -1.9 C32.3 -1.1 33.4 -1 34.1 -1.7 C34.9 -2.3 35 -3.4 34.3 -4.1 C31.3 -7.7 27.7 -11.6 24.4 -14.5 C21 -17.4 17.3 -20.3 13.9 -22.1 C10.5 -23.9 6.4 -24.9 3 -25.1 C-0.4 -25.2 -4.5 -24.2 -8 -22.8 C-11.5 -21.4 -15.5 -18.9 -19.1 -16.3 C-22.6 -13.7 -26.9 -10.5 -30.2 -7.3 C-30.9 -6.6 -30.9 -5.5 -30.3 -4.8 C-29.6 -4.1 -28.5 -4.1 -27.8 -4.7 Z M-31.9 4.9 C-28.5 2.3 -24.8 0.3 -21.2 -1.8 C-17.6 -3.8 -14.5 -5.6 -11 -6.7 C-7.5 -7.8 -4.8 -8.8 -1.3 -8.6 C2.1 -8.4 5.1 -8 8.4 -6.6 C11.8 -5.1 14.9 -3 18.2 -0.6 C21.6 1.8 24.7 4.8 27.8 7.8 C28.5 8.5 29.6 8.4 30.3 7.7 C31 7 30.9 5.9 30.2 5.2 C27.1 2.3 23.5 -0.8 20.1 -3.2 C16.8 -5.6 13 -7.9 9.6 -9.3 C6.2 -10.8 2.3 -11.5 -1.2 -11.6 C-4.6 -11.8 -8.5 -11 -12 -9.9 C-15.5 -8.8 -19.4 -7 -23 -4.9 C-26.6 -2.9 -30.7 -0.5 -34.1 2.1 C-34.9 2.7 -35 3.8 -34.4 4.6 C-33.8 5.4 -32.7 5.5 -31.9 4.9 Z M-30.1 14.6 C-26.6 12.6 -22.9 11.3 -19.3 9.7 C-15.7 8.2 -12.6 6.9 -9 6.1 C-5.5 5.3 -2.5 4.4 1 4.6 C4.5 4.7 7.6 5 11.1 6.1 C14.5 7.2 17.7 8.9 21.2 10.8 C24.6 12.7 27.7 15.1 31 17.5 C31.8 18 32.9 17.8 33.5 17 C34 16.2 33.8 15.1 33 14.5 C29.8 12.2 26.1 9.8 22.7 7.9 C19.3 6.1 15.5 4.4 12 3.3 C8.5 2.2 4.6 1.7 1.1 1.6 C-2.4 1.4 -6.2 2 -9.8 2.8 C-13.3 3.6 -17.2 4.9 -20.8 6.4 C-24.3 7.9 -28.4 9.4 -31.9 11.4 C-32.8 11.9 -33.1 13 -32.6 13.9 C-32.1 14.8 -31 15.1 -30.1 14.6 Z M-31.4 24.1 C-27.9 22.9 -24.4 22.1 -20.9 21.2 C-17.4 20.2 -14.2 19.4 -10.7 18.9 C-7.3 18.4 -4.2 17.9 -0.7 18.1 C2.7 18.2 5.9 18.4 9.3 19.2 C12.7 20 16 21.2 19.4 22.5 C22.7 23.8 25.9 25.5 29.2 27.1 C30.1 27.5 31.2 27.1 31.6 26.3 C32 25.4 31.6 24.3 30.8 23.9 C27.5 22.3 23.9 20.7 20.5 19.4 C17.1 18.1 13.4 17.1 10 16.2 C6.6 15.4 2.9 15.1 -0.6 15 C-4 14.8 -7.7 15.1 -11.2 15.6 C-14.7 16.1 -18.4 16.8 -21.9 17.8 C-25.4 18.7 -29.2 19.6 -32.6 20.9 C-33.5 21.2 -34 22.2 -33.6 23.1 C-33.3 24 -32.3 24.5 -31.4 24.1 Z M-29.7 33.8 C-26.2 33.2 -22.7 33.1 -19.2 32.7 C-15.6 32.3 -12.3 32 -8.7 31.8 C-5.2 31.6 -1.9 31.2 1.6 31.4 C5.1 31.5 8.5 31.5 12 32 C15.5 32.5 18.8 33.2 22.3 33.9 C25.8 34.6 29.1 35.8 32.6 36.7 C33.5 37 34.5 36.4 34.7 35.4 C35 34.5 34.4 33.5 33.4 33.3 C30 32.4 26.5 31.4 23 30.7 C19.5 30 15.9 29.5 12.4 29 C8.9 28.5 5.2 28.5 1.7 28.3 C-1.8 28.2 -5.4 28.3 -8.9 28.5 C-12.4 28.6 -16 28.7 -19.6 29.1 C-23.1 29.5 -26.8 29.7 -30.3 30.2 C-31.3 30.4 -31.9 31.3 -31.8 32.3 C-31.6 33.3 -30.7 33.9 -29.7 33.8 Z "/></g><g transform="translate(282.4 180.7) scale(1.880)"><path d="M-32.2 -18.3 C-29.2 -17.9 -26.2 -17.2 -23.2 -16.9 C-20.2 -16.6 -17.2 -16.3 -14.2 -16.1 C-11.2 -15.9 -8.1 -16.1 -5.1 -16 C-2.1 -15.8 1 -16.1 4 -16.1 C7 -16.1 10 -16.2 13 -16.3 C16 -16.4 19.1 -16.1 22.1 -16.2 C23 -16.3 23.8 -17.1 23.8 -18.1 C23.7 -19 22.9 -19.8 21.9 -19.8 C18.9 -19.6 15.9 -19.6 12.9 -19.5 C9.9 -19.5 7 -19.2 4 -19.2 C1 -19.2 -2 -18.9 -5 -19 C-8 -19.1 -11 -19.2 -14 -19.4 C-16.9 -19.7 -19.9 -20.2 -22.9 -20.5 C-25.9 -20.8 -28.8 -21.4 -31.8 -21.7 C-32.8 -21.9 -33.6 -21.2 -33.7 -20.2 C-33.9 -19.2 -33.2 -18.4 -32.2 -18.3 Z M-25.1 -8.2 C-22 -8 -18.7 -7.3 -15.6 -7.2 C-12.4 -7 -9.1 -6.9 -5.9 -6.8 C-2.7 -6.8 0.5 -7.3 3.7 -7.4 C6.9 -7.6 10.1 -8.3 13.3 -8.7 C16.4 -9 19.6 -9.5 22.8 -10 C25.9 -10.5 29.2 -10.7 32.3 -11.3 C33.3 -11.4 33.9 -12.4 33.7 -13.3 C33.6 -14.3 32.6 -14.9 31.7 -14.7 C28.5 -14.1 25.4 -13.7 22.3 -13.2 C19.1 -12.7 16.1 -12 12.9 -11.7 C9.8 -11.3 6.7 -10.7 3.6 -10.5 C0.4 -10.3 -2.7 -10.2 -5.9 -10.2 C-9.1 -10.2 -12.2 -10.6 -15.4 -10.8 C-18.6 -10.9 -21.7 -11.5 -24.9 -11.8 C-25.8 -11.9 -26.7 -11.1 -26.8 -10.1 C-26.9 -9.2 -26.1 -8.3 -25.1 -8.2 Z M-31.4 1.8 C-28.8 2.3 -26.3 3.3 -23.7 3.7 C-21.2 4.1 -18.5 4.6 -16 4.8 C-13.4 5.1 -10.7 4.8 -8.1 4.9 C-5.5 4.9 -2.9 4.4 -0.3 4.2 C2.3 4.1 4.9 3.7 7.5 3.4 C10 3.1 12.7 3.2 15.3 2.8 C16.3 2.6 16.9 1.7 16.8 0.7 C16.6 -0.3 15.7 -0.9 14.7 -0.8 C12.1 -0.3 9.6 -0.1 7.1 0.2 C4.5 0.5 2.1 1.1 -0.5 1.3 C-3 1.4 -5.5 1.9 -8 1.9 C-10.6 1.8 -13.1 1.8 -15.6 1.5 C-18.2 1.2 -20.6 0.5 -23.1 0.1 C-25.7 -0.3 -28.1 -1.2 -30.6 -1.8 C-31.6 -2 -32.5 -1.3 -32.8 -0.4 C-33 0.6 -32.3 1.5 -31.4 1.8 Z M-18.3 11.7 C-15.6 12.3 -12.8 13.1 -10.1 13.5 C-7.3 13.9 -4.4 14.3 -1.7 14.5 C1.1 14.7 4 14.4 6.7 14.3 C9.4 14.2 12.3 13.5 15 13.1 C17.7 12.7 20.5 12.1 23.2 11.5 C25.9 10.9 28.8 10.5 31.5 9.7 C32.4 9.4 33 8.4 32.7 7.5 C32.4 6.6 31.4 6 30.5 6.3 C27.8 7.1 25.2 7.7 22.5 8.3 C19.8 8.9 17.3 9.7 14.5 10.1 C11.8 10.5 9.3 11.1 6.6 11.2 C3.9 11.3 1.3 11.3 -1.5 11.2 C-4.2 11 -6.8 10.4 -9.6 10 C-12.3 9.6 -14.9 8.8 -17.7 8.3 C-18.6 8.1 -19.5 8.7 -19.7 9.7 C-19.9 10.6 -19.3 11.5 -18.3 11.7 Z M-28.6 21.7 C-25.5 22.8 -22.4 24.2 -19.2 25.1 C-16.1 26 -12.8 26.9 -9.6 27.5 C-6.5 28.1 -3 28.1 0.1 28.3 C3.3 28.5 6.7 28 9.9 27.7 C13.1 27.5 16.4 26.9 19.6 26.4 C22.8 25.8 26.2 25.5 29.4 24.7 C30.4 24.5 31 23.5 30.7 22.6 C30.5 21.6 29.5 21 28.6 21.3 C25.4 22.1 22.2 22.6 19 23.1 C15.8 23.7 12.8 24.5 9.6 24.7 C6.5 25 3.5 25.4 0.3 25.2 C-2.9 25.1 -5.9 24.8 -9 24.2 C-12.2 23.6 -15.1 22.5 -18.2 21.6 C-21.4 20.8 -24.3 19.4 -27.4 18.3 C-28.3 18 -29.3 18.5 -29.7 19.4 C-30 20.3 -29.5 21.3 -28.6 21.7 Z "/></g><g transform="translate(364.1 184.0) scale(2.120)"><path d="M-18.7 -33.4 C-19.6 -30 -20.7 -26.7 -21.4 -23.2 C-22.2 -19.8 -22.9 -16.3 -23.5 -12.9 C-24.1 -9.5 -24.2 -5.9 -24.5 -2.4 C-24.9 1 -24.7 4.6 -24.8 8.1 C-24.9 11.5 -24.9 15.1 -24.8 18.6 C-24.7 22 -24.9 25.6 -24.8 29.1 C-24.7 30.1 -23.9 30.8 -22.9 30.8 C-21.9 30.7 -21.2 29.9 -21.2 28.9 C-21.4 25.4 -21.5 22 -21.5 18.5 C-21.6 15 -21.9 11.6 -21.8 8.1 C-21.7 4.7 -21.8 1.3 -21.5 -2.1 C-21.1 -5.6 -20.8 -8.9 -20.2 -12.4 C-19.6 -15.8 -18.7 -19.1 -18 -22.5 C-17.2 -25.9 -16.2 -29.2 -15.3 -32.6 C-15.1 -33.5 -15.6 -34.5 -16.6 -34.7 C-17.5 -34.9 -18.5 -34.4 -18.7 -33.4 Z M-10.5 -27.7 C-10 -24.4 -10 -21 -9.5 -17.6 C-9.1 -14.2 -8.7 -10.9 -8.4 -7.5 C-8.1 -4.2 -7.4 -0.9 -7.2 2.5 C-7 5.9 -6.5 9.2 -6.4 12.6 C-6.3 16 -6.4 19.4 -6.4 22.8 C-6.4 26.2 -6.9 29.5 -7 32.9 C-7.1 33.9 -6.3 34.7 -5.3 34.8 C-4.3 34.8 -3.5 34 -3.5 33.1 C-3.4 29.7 -3.2 26.2 -3.2 22.8 C-3.1 19.4 -3.3 16 -3.4 12.6 C-3.5 9.2 -3.9 5.7 -4.1 2.3 C-4.3 -1.1 -4.7 -4.5 -5 -7.9 C-5.4 -11.2 -5.5 -14.7 -6 -18.1 C-6.4 -21.4 -6.5 -24.9 -7 -28.3 C-7.1 -29.2 -8 -29.9 -9 -29.8 C-10 -29.6 -10.6 -28.7 -10.5 -27.7 Z M5.5 -32.3 C4.9 -29.2 3.8 -26 3.3 -22.8 C2.7 -19.6 2.2 -16.3 1.8 -13.1 C1.4 -9.9 1.5 -6.5 1.2 -3.3 C1 -0.1 1.3 3.3 1.2 6.5 C1.1 9.7 1.1 13 1.2 16.3 C1.2 19.5 0.8 22.8 0.9 26.1 C1 27.1 1.8 27.8 2.8 27.8 C3.8 27.8 4.6 26.9 4.5 25.9 C4.4 22.7 4.4 19.5 4.4 16.2 C4.4 13 4.1 9.8 4.2 6.6 C4.2 3.3 4 0.2 4.2 -3.1 C4.5 -6.3 4.7 -9.5 5.1 -12.7 C5.5 -15.9 6.3 -19 6.9 -22.2 C7.4 -25.4 8.4 -28.5 9 -31.7 C9.2 -32.6 8.6 -33.6 7.6 -33.8 C6.7 -34 5.7 -33.3 5.5 -32.3 Z M14 -25.5 C14.9 -22.4 15.4 -19.2 16.2 -16 C17 -12.8 17.7 -9.8 18.3 -6.6 C19 -3.4 19.8 -0.4 20.2 2.9 C20.6 6.1 21.1 9.2 21.2 12.4 C21.4 15.7 21.3 18.9 21.3 22.1 C21.2 25.4 20.8 28.6 20.6 31.9 C20.6 32.9 21.3 33.7 22.3 33.8 C23.2 33.8 24.1 33.1 24.1 32.1 C24.3 28.8 24.5 25.5 24.6 22.2 C24.6 18.9 24.4 15.6 24.3 12.3 C24.2 9.1 23.6 5.7 23.2 2.5 C22.9 -0.7 22.2 -4 21.6 -7.2 C21 -10.4 20.4 -13.7 19.6 -16.9 C18.8 -20 18.2 -23.3 17.3 -26.5 C17.1 -27.4 16.1 -28 15.1 -27.7 C14.2 -27.4 13.7 -26.4 14 -25.5 Z "/></g><g transform="translate(46.0 281.5) scale(2.000)"><path d="M-27.8 -4.7 C-24.4 -8 -20.5 -10.8 -17 -13.4 C-13.4 -16 -10.3 -18.3 -6.7 -19.7 C-3.2 -21.1 -0.6 -22.1 2.8 -22 C6.3 -21.8 9.1 -21.2 12.5 -19.4 C15.9 -17.6 18.9 -15 22.2 -12.1 C25.5 -9.1 28.6 -5.5 31.7 -1.9 C32.3 -1.1 33.4 -1 34.1 -1.7 C34.9 -2.3 35 -3.4 34.3 -4.1 C31.3 -7.7 27.7 -11.6 24.4 -14.5 C21 -17.4 17.3 -20.3 13.9 -22.1 C10.5 -23.9 6.4 -24.9 3 -25.1 C-0.4 -25.2 -4.5 -24.2 -8 -22.8 C-11.5 -21.4 -15.5 -18.9 -19.1 -16.3 C-22.6 -13.7 -26.9 -10.5 -30.2 -7.3 C-30.9 -6.6 -30.9 -5.5 -30.3 -4.8 C-29.6 -4.1 -28.5 -4.1 -27.8 -4.7 Z M-31.9 4.9 C-28.5 2.3 -24.8 0.3 -21.2 -1.8 C-17.6 -3.8 -14.5 -5.6 -11 -6.7 C-7.5 -7.8 -4.8 -8.8 -1.3 -8.6 C2.1 -8.4 5.1 -8 8.4 -6.6 C11.8 -5.1 14.9 -3 18.2 -0.6 C21.6 1.8 24.7 4.8 27.8 7.8 C28.5 8.5 29.6 8.4 30.3 7.7 C31 7 30.9 5.9 30.2 5.2 C27.1 2.3 23.5 -0.8 20.1 -3.2 C16.8 -5.6 13 -7.9 9.6 -9.3 C6.2 -10.8 2.3 -11.5 -1.2 -11.6 C-4.6 -11.8 -8.5 -11 -12 -9.9 C-15.5 -8.8 -19.4 -7 -23 -4.9 C-26.6 -2.9 -30.7 -0.5 -34.1 2.1 C-34.9 2.7 -35 3.8 -34.4 4.6 C-33.8 5.4 -32.7 5.5 -31.9 4.9 Z M-30.1 14.6 C-26.6 12.6 -22.9 11.3 -19.3 9.7 C-15.7 8.2 -12.6 6.9 -9 6.1 C-5.5 5.3 -2.5 4.4 1 4.6 C4.5 4.7 7.6 5 11.1 6.1 C14.5 7.2 17.7 8.9 21.2 10.8 C24.6 12.7 27.7 15.1 31 17.5 C31.8 18 32.9 17.8 33.5 17 C34 16.2 33.8 15.1 33 14.5 C29.8 12.2 26.1 9.8 22.7 7.9 C19.3 6.1 15.5 4.4 12 3.3 C8.5 2.2 4.6 1.7 1.1 1.6 C-2.4 1.4 -6.2 2 -9.8 2.8 C-13.3 3.6 -17.2 4.9 -20.8 6.4 C-24.3 7.9 -28.4 9.4 -31.9 11.4 C-32.8 11.9 -33.1 13 -32.6 13.9 C-32.1 14.8 -31 15.1 -30.1 14.6 Z M-31.4 24.1 C-27.9 22.9 -24.4 22.1 -20.9 21.2 C-17.4 20.2 -14.2 19.4 -10.7 18.9 C-7.3 18.4 -4.2 17.9 -0.7 18.1 C2.7 18.2 5.9 18.4 9.3 19.2 C12.7 20 16 21.2 19.4 22.5 C22.7 23.8 25.9 25.5 29.2 27.1 C30.1 27.5 31.2 27.1 31.6 26.3 C32 25.4 31.6 24.3 30.8 23.9 C27.5 22.3 23.9 20.7 20.5 19.4 C17.1 18.1 13.4 17.1 10 16.2 C6.6 15.4 2.9 15.1 -0.6 15 C-4 14.8 -7.7 15.1 -11.2 15.6 C-14.7 16.1 -18.4 16.8 -21.9 17.8 C-25.4 18.7 -29.2 19.6 -32.6 20.9 C-33.5 21.2 -34 22.2 -33.6 23.1 C-33.3 24 -32.3 24.5 -31.4 24.1 Z M-29.7 33.8 C-26.2 33.2 -22.7 33.1 -19.2 32.7 C-15.6 32.3 -12.3 32 -8.7 31.8 C-5.2 31.6 -1.9 31.2 1.6 31.4 C5.1 31.5 8.5 31.5 12 32 C15.5 32.5 18.8 33.2 22.3 33.9 C25.8 34.6 29.1 35.8 32.6 36.7 C33.5 37 34.5 36.4 34.7 35.4 C35 34.5 34.4 33.5 33.4 33.3 C30 32.4 26.5 31.4 23 30.7 C19.5 30 15.9 29.5 12.4 29 C8.9 28.5 5.2 28.5 1.7 28.3 C-1.8 28.2 -5.4 28.3 -8.9 28.5 C-12.4 28.6 -16 28.7 -19.6 29.1 C-23.1 29.5 -26.8 29.7 -30.3 30.2 C-31.3 30.4 -31.9 31.3 -31.8 32.3 C-31.6 33.3 -30.7 33.9 -29.7 33.8 Z "/></g><g transform="translate(144.4 272.7) scale(1.720)"><path d="M-32.2 -18.3 C-29.2 -17.9 -26.2 -17.2 -23.2 -16.9 C-20.2 -16.6 -17.2 -16.3 -14.2 -16.1 C-11.2 -15.9 -8.1 -16.1 -5.1 -16 C-2.1 -15.8 1 -16.1 4 -16.1 C7 -16.1 10 -16.2 13 -16.3 C16 -16.4 19.1 -16.1 22.1 -16.2 C23 -16.3 23.8 -17.1 23.8 -18.1 C23.7 -19 22.9 -19.8 21.9 -19.8 C18.9 -19.6 15.9 -19.6 12.9 -19.5 C9.9 -19.5 7 -19.2 4 -19.2 C1 -19.2 -2 -18.9 -5 -19 C-8 -19.1 -11 -19.2 -14 -19.4 C-16.9 -19.7 -19.9 -20.2 -22.9 -20.5 C-25.9 -20.8 -28.8 -21.4 -31.8 -21.7 C-32.8 -21.9 -33.6 -21.2 -33.7 -20.2 C-33.9 -19.2 -33.2 -18.4 -32.2 -18.3 Z M-25.1 -8.2 C-22 -8 -18.7 -7.3 -15.6 -7.2 C-12.4 -7 -9.1 -6.9 -5.9 -6.8 C-2.7 -6.8 0.5 -7.3 3.7 -7.4 C6.9 -7.6 10.1 -8.3 13.3 -8.7 C16.4 -9 19.6 -9.5 22.8 -10 C25.9 -10.5 29.2 -10.7 32.3 -11.3 C33.3 -11.4 33.9 -12.4 33.7 -13.3 C33.6 -14.3 32.6 -14.9 31.7 -14.7 C28.5 -14.1 25.4 -13.7 22.3 -13.2 C19.1 -12.7 16.1 -12 12.9 -11.7 C9.8 -11.3 6.7 -10.7 3.6 -10.5 C0.4 -10.3 -2.7 -10.2 -5.9 -10.2 C-9.1 -10.2 -12.2 -10.6 -15.4 -10.8 C-18.6 -10.9 -21.7 -11.5 -24.9 -11.8 C-25.8 -11.9 -26.7 -11.1 -26.8 -10.1 C-26.9 -9.2 -26.1 -8.3 -25.1 -8.2 Z M-31.4 1.8 C-28.8 2.3 -26.3 3.3 -23.7 3.7 C-21.2 4.1 -18.5 4.6 -16 4.8 C-13.4 5.1 -10.7 4.8 -8.1 4.9 C-5.5 4.9 -2.9 4.4 -0.3 4.2 C2.3 4.1 4.9 3.7 7.5 3.4 C10 3.1 12.7 3.2 15.3 2.8 C16.3 2.6 16.9 1.7 16.8 0.7 C16.6 -0.3 15.7 -0.9 14.7 -0.8 C12.1 -0.3 9.6 -0.1 7.1 0.2 C4.5 0.5 2.1 1.1 -0.5 1.3 C-3 1.4 -5.5 1.9 -8 1.9 C-10.6 1.8 -13.1 1.8 -15.6 1.5 C-18.2 1.2 -20.6 0.5 -23.1 0.1 C-25.7 -0.3 -28.1 -1.2 -30.6 -1.8 C-31.6 -2 -32.5 -1.3 -32.8 -0.4 C-33 0.6 -32.3 1.5 -31.4 1.8 Z M-18.3 11.7 C-15.6 12.3 -12.8 13.1 -10.1 13.5 C-7.3 13.9 -4.4 14.3 -1.7 14.5 C1.1 14.7 4 14.4 6.7 14.3 C9.4 14.2 12.3 13.5 15 13.1 C17.7 12.7 20.5 12.1 23.2 11.5 C25.9 10.9 28.8 10.5 31.5 9.7 C32.4 9.4 33 8.4 32.7 7.5 C32.4 6.6 31.4 6 30.5 6.3 C27.8 7.1 25.2 7.7 22.5 8.3 C19.8 8.9 17.3 9.7 14.5 10.1 C11.8 10.5 9.3 11.1 6.6 11.2 C3.9 11.3 1.3 11.3 -1.5 11.2 C-4.2 11 -6.8 10.4 -9.6 10 C-12.3 9.6 -14.9 8.8 -17.7 8.3 C-18.6 8.1 -19.5 8.7 -19.7 9.7 C-19.9 10.6 -19.3 11.5 -18.3 11.7 Z M-28.6 21.7 C-25.5 22.8 -22.4 24.2 -19.2 25.1 C-16.1 26 -12.8 26.9 -9.6 27.5 C-6.5 28.1 -3 28.1 0.1 28.3 C3.3 28.5 6.7 28 9.9 27.7 C13.1 27.5 16.4 26.9 19.6 26.4 C22.8 25.8 26.2 25.5 29.4 24.7 C30.4 24.5 31 23.5 30.7 22.6 C30.5 21.6 29.5 21 28.6 21.3 C25.4 22.1 22.2 22.6 19 23.1 C15.8 23.7 12.8 24.5 9.6 24.7 C6.5 25 3.5 25.4 0.3 25.2 C-2.9 25.1 -5.9 24.8 -9 24.2 C-12.2 23.6 -15.1 22.5 -18.2 21.6 C-21.4 20.8 -24.3 19.4 -27.4 18.3 C-28.3 18 -29.3 18.5 -29.7 19.4 C-30 20.3 -29.5 21.3 -28.6 21.7 Z "/></g><g transform="translate(226.1 276.0) scale(2.240)"><path d="M-18.7 -33.4 C-19.6 -30 -20.7 -26.7 -21.4 -23.2 C-22.2 -19.8 -22.9 -16.3 -23.5 -12.9 C-24.1 -9.5 -24.2 -5.9 -24.5 -2.4 C-24.9 1 -24.7 4.6 -24.8 8.1 C-24.9 11.5 -24.9 15.1 -24.8 18.6 C-24.7 22 -24.9 25.6 -24.8 29.1 C-24.7 30.1 -23.9 30.8 -22.9 30.8 C-21.9 30.7 -21.2 29.9 -21.2 28.9 C-21.4 25.4 -21.5 22 -21.5 18.5 C-21.6 15 -21.9 11.6 -21.8 8.1 C-21.7 4.7 -21.8 1.3 -21.5 -2.1 C-21.1 -5.6 -20.8 -8.9 -20.2 -12.4 C-19.6 -15.8 -18.7 -19.1 -18 -22.5 C-17.2 -25.9 -16.2 -29.2 -15.3 -32.6 C-15.1 -33.5 -15.6 -34.5 -16.6 -34.7 C-17.5 -34.9 -18.5 -34.4 -18.7 -33.4 Z M-10.5 -27.7 C-10 -24.4 -10 -21 -9.5 -17.6 C-9.1 -14.2 -8.7 -10.9 -8.4 -7.5 C-8.1 -4.2 -7.4 -0.9 -7.2 2.5 C-7 5.9 -6.5 9.2 -6.4 12.6 C-6.3 16 -6.4 19.4 -6.4 22.8 C-6.4 26.2 -6.9 29.5 -7 32.9 C-7.1 33.9 -6.3 34.7 -5.3 34.8 C-4.3 34.8 -3.5 34 -3.5 33.1 C-3.4 29.7 -3.2 26.2 -3.2 22.8 C-3.1 19.4 -3.3 16 -3.4 12.6 C-3.5 9.2 -3.9 5.7 -4.1 2.3 C-4.3 -1.1 -4.7 -4.5 -5 -7.9 C-5.4 -11.2 -5.5 -14.7 -6 -18.1 C-6.4 -21.4 -6.5 -24.9 -7 -28.3 C-7.1 -29.2 -8 -29.9 -9 -29.8 C-10 -29.6 -10.6 -28.7 -10.5 -27.7 Z M5.5 -32.3 C4.9 -29.2 3.8 -26 3.3 -22.8 C2.7 -19.6 2.2 -16.3 1.8 -13.1 C1.4 -9.9 1.5 -6.5 1.2 -3.3 C1 -0.1 1.3 3.3 1.2 6.5 C1.1 9.7 1.1 13 1.2 16.3 C1.2 19.5 0.8 22.8 0.9 26.1 C1 27.1 1.8 27.8 2.8 27.8 C3.8 27.8 4.6 26.9 4.5 25.9 C4.4 22.7 4.4 19.5 4.4 16.2 C4.4 13 4.1 9.8 4.2 6.6 C4.2 3.3 4 0.2 4.2 -3.1 C4.5 -6.3 4.7 -9.5 5.1 -12.7 C5.5 -15.9 6.3 -19 6.9 -22.2 C7.4 -25.4 8.4 -28.5 9 -31.7 C9.2 -32.6 8.6 -33.6 7.6 -33.8 C6.7 -34 5.7 -33.3 5.5 -32.3 Z M14 -25.5 C14.9 -22.4 15.4 -19.2 16.2 -16 C17 -12.8 17.7 -9.8 18.3 -6.6 C19 -3.4 19.8 -0.4 20.2 2.9 C20.6 6.1 21.1 9.2 21.2 12.4 C21.4 15.7 21.3 18.9 21.3 22.1 C21.2 25.4 20.8 28.6 20.6 31.9 C20.6 32.9 21.3 33.7 22.3 33.8 C23.2 33.8 24.1 33.1 24.1 32.1 C24.3 28.8 24.5 25.5 24.6 22.2 C24.6 18.9 24.4 15.6 24.3 12.3 C24.2 9.1 23.6 5.7 23.2 2.5 C22.9 -0.7 22.2 -4 21.6 -7.2 C21 -10.4 20.4 -13.7 19.6 -16.9 C18.8 -20 18.2 -23.3 17.3 -26.5 C17.1 -27.4 16.1 -28 15.1 -27.7 C14.2 -27.4 13.7 -26.4 14 -25.5 Z "/></g><g transform="translate(322.0 281.5) scale(1.880)"><path d="M-27.8 -4.7 C-24.4 -8 -20.5 -10.8 -17 -13.4 C-13.4 -16 -10.3 -18.3 -6.7 -19.7 C-3.2 -21.1 -0.6 -22.1 2.8 -22 C6.3 -21.8 9.1 -21.2 12.5 -19.4 C15.9 -17.6 18.9 -15 22.2 -12.1 C25.5 -9.1 28.6 -5.5 31.7 -1.9 C32.3 -1.1 33.4 -1 34.1 -1.7 C34.9 -2.3 35 -3.4 34.3 -4.1 C31.3 -7.7 27.7 -11.6 24.4 -14.5 C21 -17.4 17.3 -20.3 13.9 -22.1 C10.5 -23.9 6.4 -24.9 3 -25.1 C-0.4 -25.2 -4.5 -24.2 -8 -22.8 C-11.5 -21.4 -15.5 -18.9 -19.1 -16.3 C-22.6 -13.7 -26.9 -10.5 -30.2 -7.3 C-30.9 -6.6 -30.9 -5.5 -30.3 -4.8 C-29.6 -4.1 -28.5 -4.1 -27.8 -4.7 Z M-31.9 4.9 C-28.5 2.3 -24.8 0.3 -21.2 -1.8 C-17.6 -3.8 -14.5 -5.6 -11 -6.7 C-7.5 -7.8 -4.8 -8.8 -1.3 -8.6 C2.1 -8.4 5.1 -8 8.4 -6.6 C11.8 -5.1 14.9 -3 18.2 -0.6 C21.6 1.8 24.7 4.8 27.8 7.8 C28.5 8.5 29.6 8.4 30.3 7.7 C31 7 30.9 5.9 30.2 5.2 C27.1 2.3 23.5 -0.8 20.1 -3.2 C16.8 -5.6 13 -7.9 9.6 -9.3 C6.2 -10.8 2.3 -11.5 -1.2 -11.6 C-4.6 -11.8 -8.5 -11 -12 -9.9 C-15.5 -8.8 -19.4 -7 -23 -4.9 C-26.6 -2.9 -30.7 -0.5 -34.1 2.1 C-34.9 2.7 -35 3.8 -34.4 4.6 C-33.8 5.4 -32.7 5.5 -31.9 4.9 Z M-30.1 14.6 C-26.6 12.6 -22.9 11.3 -19.3 9.7 C-15.7 8.2 -12.6 6.9 -9 6.1 C-5.5 5.3 -2.5 4.4 1 4.6 C4.5 4.7 7.6 5 11.1 6.1 C14.5 7.2 17.7 8.9 21.2 10.8 C24.6 12.7 27.7 15.1 31 17.5 C31.8 18 32.9 17.8 33.5 17 C34 16.2 33.8 15.1 33 14.5 C29.8 12.2 26.1 9.8 22.7 7.9 C19.3 6.1 15.5 4.4 12 3.3 C8.5 2.2 4.6 1.7 1.1 1.6 C-2.4 1.4 -6.2 2 -9.8 2.8 C-13.3 3.6 -17.2 4.9 -20.8 6.4 C-24.3 7.9 -28.4 9.4 -31.9 11.4 C-32.8 11.9 -33.1 13 -32.6 13.9 C-32.1 14.8 -31 15.1 -30.1 14.6 Z M-31.4 24.1 C-27.9 22.9 -24.4 22.1 -20.9 21.2 C-17.4 20.2 -14.2 19.4 -10.7 18.9 C-7.3 18.4 -4.2 17.9 -0.7 18.1 C2.7 18.2 5.9 18.4 9.3 19.2 C12.7 20 16 21.2 19.4 22.5 C22.7 23.8 25.9 25.5 29.2 27.1 C30.1 27.5 31.2 27.1 31.6 26.3 C32 25.4 31.6 24.3 30.8 23.9 C27.5 22.3 23.9 20.7 20.5 19.4 C17.1 18.1 13.4 17.1 10 16.2 C6.6 15.4 2.9 15.1 -0.6 15 C-4 14.8 -7.7 15.1 -11.2 15.6 C-14.7 16.1 -18.4 16.8 -21.9 17.8 C-25.4 18.7 -29.2 19.6 -32.6 20.9 C-33.5 21.2 -34 22.2 -33.6 23.1 C-33.3 24 -32.3 24.5 -31.4 24.1 Z M-29.7 33.8 C-26.2 33.2 -22.7 33.1 -19.2 32.7 C-15.6 32.3 -12.3 32 -8.7 31.8 C-5.2 31.6 -1.9 31.2 1.6 31.4 C5.1 31.5 8.5 31.5 12 32 C15.5 32.5 18.8 33.2 22.3 33.9 C25.8 34.6 29.1 35.8 32.6 36.7 C33.5 37 34.5 36.4 34.7 35.4 C35 34.5 34.4 33.5 33.4 33.3 C30 32.4 26.5 31.4 23 30.7 C19.5 30 15.9 29.5 12.4 29 C8.9 28.5 5.2 28.5 1.7 28.3 C-1.8 28.2 -5.4 28.3 -8.9 28.5 C-12.4 28.6 -16 28.7 -19.6 29.1 C-23.1 29.5 -26.8 29.7 -30.3 30.2 C-31.3 30.4 -31.9 31.3 -31.8 32.3 C-31.6 33.3 -30.7 33.9 -29.7 33.8 Z "/></g><g transform="translate(420.4 272.7) scale(2.120)"><path d="M-32.2 -18.3 C-29.2 -17.9 -26.2 -17.2 -23.2 -16.9 C-20.2 -16.6 -17.2 -16.3 -14.2 -16.1 C-11.2 -15.9 -8.1 -16.1 -5.1 -16 C-2.1 -15.8 1 -16.1 4 -16.1 C7 -16.1 10 -16.2 13 -16.3 C16 -16.4 19.1 -16.1 22.1 -16.2 C23 -16.3 23.8 -17.1 23.8 -18.1 C23.7 -19 22.9 -19.8 21.9 -19.8 C18.9 -19.6 15.9 -19.6 12.9 -19.5 C9.9 -19.5 7 -19.2 4 -19.2 C1 -19.2 -2 -18.9 -5 -19 C-8 -19.1 -11 -19.2 -14 -19.4 C-16.9 -19.7 -19.9 -20.2 -22.9 -20.5 C-25.9 -20.8 -28.8 -21.4 -31.8 -21.7 C-32.8 -21.9 -33.6 -21.2 -33.7 -20.2 C-33.9 -19.2 -33.2 -18.4 -32.2 -18.3 Z M-25.1 -8.2 C-22 -8 -18.7 -7.3 -15.6 -7.2 C-12.4 -7 -9.1 -6.9 -5.9 -6.8 C-2.7 -6.8 0.5 -7.3 3.7 -7.4 C6.9 -7.6 10.1 -8.3 13.3 -8.7 C16.4 -9 19.6 -9.5 22.8 -10 C25.9 -10.5 29.2 -10.7 32.3 -11.3 C33.3 -11.4 33.9 -12.4 33.7 -13.3 C33.6 -14.3 32.6 -14.9 31.7 -14.7 C28.5 -14.1 25.4 -13.7 22.3 -13.2 C19.1 -12.7 16.1 -12 12.9 -11.7 C9.8 -11.3 6.7 -10.7 3.6 -10.5 C0.4 -10.3 -2.7 -10.2 -5.9 -10.2 C-9.1 -10.2 -12.2 -10.6 -15.4 -10.8 C-18.6 -10.9 -21.7 -11.5 -24.9 -11.8 C-25.8 -11.9 -26.7 -11.1 -26.8 -10.1 C-26.9 -9.2 -26.1 -8.3 -25.1 -8.2 Z M-31.4 1.8 C-28.8 2.3 -26.3 3.3 -23.7 3.7 C-21.2 4.1 -18.5 4.6 -16 4.8 C-13.4 5.1 -10.7 4.8 -8.1 4.9 C-5.5 4.9 -2.9 4.4 -0.3 4.2 C2.3 4.1 4.9 3.7 7.5 3.4 C10 3.1 12.7 3.2 15.3 2.8 C16.3 2.6 16.9 1.7 16.8 0.7 C16.6 -0.3 15.7 -0.9 14.7 -0.8 C12.1 -0.3 9.6 -0.1 7.1 0.2 C4.5 0.5 2.1 1.1 -0.5 1.3 C-3 1.4 -5.5 1.9 -8 1.9 C-10.6 1.8 -13.1 1.8 -15.6 1.5 C-18.2 1.2 -20.6 0.5 -23.1 0.1 C-25.7 -0.3 -28.1 -1.2 -30.6 -1.8 C-31.6 -2 -32.5 -1.3 -32.8 -0.4 C-33 0.6 -32.3 1.5 -31.4 1.8 Z M-18.3 11.7 C-15.6 12.3 -12.8 13.1 -10.1 13.5 C-7.3 13.9 -4.4 14.3 -1.7 14.5 C1.1 14.7 4 14.4 6.7 14.3 C9.4 14.2 12.3 13.5 15 13.1 C17.7 12.7 20.5 12.1 23.2 11.5 C25.9 10.9 28.8 10.5 31.5 9.7 C32.4 9.4 33 8.4 32.7 7.5 C32.4 6.6 31.4 6 30.5 6.3 C27.8 7.1 25.2 7.7 22.5 8.3 C19.8 8.9 17.3 9.7 14.5 10.1 C11.8 10.5 9.3 11.1 6.6 11.2 C3.9 11.3 1.3 11.3 -1.5 11.2 C-4.2 11 -6.8 10.4 -9.6 10 C-12.3 9.6 -14.9 8.8 -17.7 8.3 C-18.6 8.1 -19.5 8.7 -19.7 9.7 C-19.9 10.6 -19.3 11.5 -18.3 11.7 Z M-28.6 21.7 C-25.5 22.8 -22.4 24.2 -19.2 25.1 C-16.1 26 -12.8 26.9 -9.6 27.5 C-6.5 28.1 -3 28.1 0.1 28.3 C3.3 28.5 6.7 28 9.9 27.7 C13.1 27.5 16.4 26.9 19.6 26.4 C22.8 25.8 26.2 25.5 29.4 24.7 C30.4 24.5 31 23.5 30.7 22.6 C30.5 21.6 29.5 21 28.6 21.3 C25.4 22.1 22.2 22.6 19 23.1 C15.8 23.7 12.8 24.5 9.6 24.7 C6.5 25 3.5 25.4 0.3 25.2 C-2.9 25.1 -5.9 24.8 -9 24.2 C-12.2 23.6 -15.1 22.5 -18.2 21.6 C-21.4 20.8 -24.3 19.4 -27.4 18.3 C-28.3 18 -29.3 18.5 -29.7 19.4 C-30 20.3 -29.5 21.3 -28.6 21.7 Z "/></g><g transform="translate(-3.9 368.0) scale(2.000)"><path d="M-18.7 -33.4 C-19.6 -30 -20.7 -26.7 -21.4 -23.2 C-22.2 -19.8 -22.9 -16.3 -23.5 -12.9 C-24.1 -9.5 -24.2 -5.9 -24.5 -2.4 C-24.9 1 -24.7 4.6 -24.8 8.1 C-24.9 11.5 -24.9 15.1 -24.8 18.6 C-24.7 22 -24.9 25.6 -24.8 29.1 C-24.7 30.1 -23.9 30.8 -22.9 30.8 C-21.9 30.7 -21.2 29.9 -21.2 28.9 C-21.4 25.4 -21.5 22 -21.5 18.5 C-21.6 15 -21.9 11.6 -21.8 8.1 C-21.7 4.7 -21.8 1.3 -21.5 -2.1 C-21.1 -5.6 -20.8 -8.9 -20.2 -12.4 C-19.6 -15.8 -18.7 -19.1 -18 -22.5 C-17.2 -25.9 -16.2 -29.2 -15.3 -32.6 C-15.1 -33.5 -15.6 -34.5 -16.6 -34.7 C-17.5 -34.9 -18.5 -34.4 -18.7 -33.4 Z M-10.5 -27.7 C-10 -24.4 -10 -21 -9.5 -17.6 C-9.1 -14.2 -8.7 -10.9 -8.4 -7.5 C-8.1 -4.2 -7.4 -0.9 -7.2 2.5 C-7 5.9 -6.5 9.2 -6.4 12.6 C-6.3 16 -6.4 19.4 -6.4 22.8 C-6.4 26.2 -6.9 29.5 -7 32.9 C-7.1 33.9 -6.3 34.7 -5.3 34.8 C-4.3 34.8 -3.5 34 -3.5 33.1 C-3.4 29.7 -3.2 26.2 -3.2 22.8 C-3.1 19.4 -3.3 16 -3.4 12.6 C-3.5 9.2 -3.9 5.7 -4.1 2.3 C-4.3 -1.1 -4.7 -4.5 -5 -7.9 C-5.4 -11.2 -5.5 -14.7 -6 -18.1 C-6.4 -21.4 -6.5 -24.9 -7 -28.3 C-7.1 -29.2 -8 -29.9 -9 -29.8 C-10 -29.6 -10.6 -28.7 -10.5 -27.7 Z M5.5 -32.3 C4.9 -29.2 3.8 -26 3.3 -22.8 C2.7 -19.6 2.2 -16.3 1.8 -13.1 C1.4 -9.9 1.5 -6.5 1.2 -3.3 C1 -0.1 1.3 3.3 1.2 6.5 C1.1 9.7 1.1 13 1.2 16.3 C1.2 19.5 0.8 22.8 0.9 26.1 C1 27.1 1.8 27.8 2.8 27.8 C3.8 27.8 4.6 26.9 4.5 25.9 C4.4 22.7 4.4 19.5 4.4 16.2 C4.4 13 4.1 9.8 4.2 6.6 C4.2 3.3 4 0.2 4.2 -3.1 C4.5 -6.3 4.7 -9.5 5.1 -12.7 C5.5 -15.9 6.3 -19 6.9 -22.2 C7.4 -25.4 8.4 -28.5 9 -31.7 C9.2 -32.6 8.6 -33.6 7.6 -33.8 C6.7 -34 5.7 -33.3 5.5 -32.3 Z M14 -25.5 C14.9 -22.4 15.4 -19.2 16.2 -16 C17 -12.8 17.7 -9.8 18.3 -6.6 C19 -3.4 19.8 -0.4 20.2 2.9 C20.6 6.1 21.1 9.2 21.2 12.4 C21.4 15.7 21.3 18.9 21.3 22.1 C21.2 25.4 20.8 28.6 20.6 31.9 C20.6 32.9 21.3 33.7 22.3 33.8 C23.2 33.8 24.1 33.1 24.1 32.1 C24.3 28.8 24.5 25.5 24.6 22.2 C24.6 18.9 24.4 15.6 24.3 12.3 C24.2 9.1 23.6 5.7 23.2 2.5 C22.9 -0.7 22.2 -4 21.6 -7.2 C21 -10.4 20.4 -13.7 19.6 -16.9 C18.8 -20 18.2 -23.3 17.3 -26.5 C17.1 -27.4 16.1 -28 15.1 -27.7 C14.2 -27.4 13.7 -26.4 14 -25.5 Z "/></g><g transform="translate(92.0 373.5) scale(1.720)"><path d="M-27.8 -4.7 C-24.4 -8 -20.5 -10.8 -17 -13.4 C-13.4 -16 -10.3 -18.3 -6.7 -19.7 C-3.2 -21.1 -0.6 -22.1 2.8 -22 C6.3 -21.8 9.1 -21.2 12.5 -19.4 C15.9 -17.6 18.9 -15 22.2 -12.1 C25.5 -9.1 28.6 -5.5 31.7 -1.9 C32.3 -1.1 33.4 -1 34.1 -1.7 C34.9 -2.3 35 -3.4 34.3 -4.1 C31.3 -7.7 27.7 -11.6 24.4 -14.5 C21 -17.4 17.3 -20.3 13.9 -22.1 C10.5 -23.9 6.4 -24.9 3 -25.1 C-0.4 -25.2 -4.5 -24.2 -8 -22.8 C-11.5 -21.4 -15.5 -18.9 -19.1 -16.3 C-22.6 -13.7 -26.9 -10.5 -30.2 -7.3 C-30.9 -6.6 -30.9 -5.5 -30.3 -4.8 C-29.6 -4.1 -28.5 -4.1 -27.8 -4.7 Z M-31.9 4.9 C-28.5 2.3 -24.8 0.3 -21.2 -1.8 C-17.6 -3.8 -14.5 -5.6 -11 -6.7 C-7.5 -7.8 -4.8 -8.8 -1.3 -8.6 C2.1 -8.4 5.1 -8 8.4 -6.6 C11.8 -5.1 14.9 -3 18.2 -0.6 C21.6 1.8 24.7 4.8 27.8 7.8 C28.5 8.5 29.6 8.4 30.3 7.7 C31 7 30.9 5.9 30.2 5.2 C27.1 2.3 23.5 -0.8 20.1 -3.2 C16.8 -5.6 13 -7.9 9.6 -9.3 C6.2 -10.8 2.3 -11.5 -1.2 -11.6 C-4.6 -11.8 -8.5 -11 -12 -9.9 C-15.5 -8.8 -19.4 -7 -23 -4.9 C-26.6 -2.9 -30.7 -0.5 -34.1 2.1 C-34.9 2.7 -35 3.8 -34.4 4.6 C-33.8 5.4 -32.7 5.5 -31.9 4.9 Z M-30.1 14.6 C-26.6 12.6 -22.9 11.3 -19.3 9.7 C-15.7 8.2 -12.6 6.9 -9 6.1 C-5.5 5.3 -2.5 4.4 1 4.6 C4.5 4.7 7.6 5 11.1 6.1 C14.5 7.2 17.7 8.9 21.2 10.8 C24.6 12.7 27.7 15.1 31 17.5 C31.8 18 32.9 17.8 33.5 17 C34 16.2 33.8 15.1 33 14.5 C29.8 12.2 26.1 9.8 22.7 7.9 C19.3 6.1 15.5 4.4 12 3.3 C8.5 2.2 4.6 1.7 1.1 1.6 C-2.4 1.4 -6.2 2 -9.8 2.8 C-13.3 3.6 -17.2 4.9 -20.8 6.4 C-24.3 7.9 -28.4 9.4 -31.9 11.4 C-32.8 11.9 -33.1 13 -32.6 13.9 C-32.1 14.8 -31 15.1 -30.1 14.6 Z M-31.4 24.1 C-27.9 22.9 -24.4 22.1 -20.9 21.2 C-17.4 20.2 -14.2 19.4 -10.7 18.9 C-7.3 18.4 -4.2 17.9 -0.7 18.1 C2.7 18.2 5.9 18.4 9.3 19.2 C12.7 20 16 21.2 19.4 22.5 C22.7 23.8 25.9 25.5 29.2 27.1 C30.1 27.5 31.2 27.1 31.6 26.3 C32 25.4 31.6 24.3 30.8 23.9 C27.5 22.3 23.9 20.7 20.5 19.4 C17.1 18.1 13.4 17.1 10 16.2 C6.6 15.4 2.9 15.1 -0.6 15 C-4 14.8 -7.7 15.1 -11.2 15.6 C-14.7 16.1 -18.4 16.8 -21.9 17.8 C-25.4 18.7 -29.2 19.6 -32.6 20.9 C-33.5 21.2 -34 22.2 -33.6 23.1 C-33.3 24 -32.3 24.5 -31.4 24.1 Z M-29.7 33.8 C-26.2 33.2 -22.7 33.1 -19.2 32.7 C-15.6 32.3 -12.3 32 -8.7 31.8 C-5.2 31.6 -1.9 31.2 1.6 31.4 C5.1 31.5 8.5 31.5 12 32 C15.5 32.5 18.8 33.2 22.3 33.9 C25.8 34.6 29.1 35.8 32.6 36.7 C33.5 37 34.5 36.4 34.7 35.4 C35 34.5 34.4 33.5 33.4 33.3 C30 32.4 26.5 31.4 23 30.7 C19.5 30 15.9 29.5 12.4 29 C8.9 28.5 5.2 28.5 1.7 28.3 C-1.8 28.2 -5.4 28.3 -8.9 28.5 C-12.4 28.6 -16 28.7 -19.6 29.1 C-23.1 29.5 -26.8 29.7 -30.3 30.2 C-31.3 30.4 -31.9 31.3 -31.8 32.3 C-31.6 33.3 -30.7 33.9 -29.7 33.8 Z "/></g><g transform="translate(190.4 364.7) scale(2.240)"><path d="M-32.2 -18.3 C-29.2 -17.9 -26.2 -17.2 -23.2 -16.9 C-20.2 -16.6 -17.2 -16.3 -14.2 -16.1 C-11.2 -15.9 -8.1 -16.1 -5.1 -16 C-2.1 -15.8 1 -16.1 4 -16.1 C7 -16.1 10 -16.2 13 -16.3 C16 -16.4 19.1 -16.1 22.1 -16.2 C23 -16.3 23.8 -17.1 23.8 -18.1 C23.7 -19 22.9 -19.8 21.9 -19.8 C18.9 -19.6 15.9 -19.6 12.9 -19.5 C9.9 -19.5 7 -19.2 4 -19.2 C1 -19.2 -2 -18.9 -5 -19 C-8 -19.1 -11 -19.2 -14 -19.4 C-16.9 -19.7 -19.9 -20.2 -22.9 -20.5 C-25.9 -20.8 -28.8 -21.4 -31.8 -21.7 C-32.8 -21.9 -33.6 -21.2 -33.7 -20.2 C-33.9 -19.2 -33.2 -18.4 -32.2 -18.3 Z M-25.1 -8.2 C-22 -8 -18.7 -7.3 -15.6 -7.2 C-12.4 -7 -9.1 -6.9 -5.9 -6.8 C-2.7 -6.8 0.5 -7.3 3.7 -7.4 C6.9 -7.6 10.1 -8.3 13.3 -8.7 C16.4 -9 19.6 -9.5 22.8 -10 C25.9 -10.5 29.2 -10.7 32.3 -11.3 C33.3 -11.4 33.9 -12.4 33.7 -13.3 C33.6 -14.3 32.6 -14.9 31.7 -14.7 C28.5 -14.1 25.4 -13.7 22.3 -13.2 C19.1 -12.7 16.1 -12 12.9 -11.7 C9.8 -11.3 6.7 -10.7 3.6 -10.5 C0.4 -10.3 -2.7 -10.2 -5.9 -10.2 C-9.1 -10.2 -12.2 -10.6 -15.4 -10.8 C-18.6 -10.9 -21.7 -11.5 -24.9 -11.8 C-25.8 -11.9 -26.7 -11.1 -26.8 -10.1 C-26.9 -9.2 -26.1 -8.3 -25.1 -8.2 Z M-31.4 1.8 C-28.8 2.3 -26.3 3.3 -23.7 3.7 C-21.2 4.1 -18.5 4.6 -16 4.8 C-13.4 5.1 -10.7 4.8 -8.1 4.9 C-5.5 4.9 -2.9 4.4 -0.3 4.2 C2.3 4.1 4.9 3.7 7.5 3.4 C10 3.1 12.7 3.2 15.3 2.8 C16.3 2.6 16.9 1.7 16.8 0.7 C16.6 -0.3 15.7 -0.9 14.7 -0.8 C12.1 -0.3 9.6 -0.1 7.1 0.2 C4.5 0.5 2.1 1.1 -0.5 1.3 C-3 1.4 -5.5 1.9 -8 1.9 C-10.6 1.8 -13.1 1.8 -15.6 1.5 C-18.2 1.2 -20.6 0.5 -23.1 0.1 C-25.7 -0.3 -28.1 -1.2 -30.6 -1.8 C-31.6 -2 -32.5 -1.3 -32.8 -0.4 C-33 0.6 -32.3 1.5 -31.4 1.8 Z M-18.3 11.7 C-15.6 12.3 -12.8 13.1 -10.1 13.5 C-7.3 13.9 -4.4 14.3 -1.7 14.5 C1.1 14.7 4 14.4 6.7 14.3 C9.4 14.2 12.3 13.5 15 13.1 C17.7 12.7 20.5 12.1 23.2 11.5 C25.9 10.9 28.8 10.5 31.5 9.7 C32.4 9.4 33 8.4 32.7 7.5 C32.4 6.6 31.4 6 30.5 6.3 C27.8 7.1 25.2 7.7 22.5 8.3 C19.8 8.9 17.3 9.7 14.5 10.1 C11.8 10.5 9.3 11.1 6.6 11.2 C3.9 11.3 1.3 11.3 -1.5 11.2 C-4.2 11 -6.8 10.4 -9.6 10 C-12.3 9.6 -14.9 8.8 -17.7 8.3 C-18.6 8.1 -19.5 8.7 -19.7 9.7 C-19.9 10.6 -19.3 11.5 -18.3 11.7 Z M-28.6 21.7 C-25.5 22.8 -22.4 24.2 -19.2 25.1 C-16.1 26 -12.8 26.9 -9.6 27.5 C-6.5 28.1 -3 28.1 0.1 28.3 C3.3 28.5 6.7 28 9.9 27.7 C13.1 27.5 16.4 26.9 19.6 26.4 C22.8 25.8 26.2 25.5 29.4 24.7 C30.4 24.5 31 23.5 30.7 22.6 C30.5 21.6 29.5 21 28.6 21.3 C25.4 22.1 22.2 22.6 19 23.1 C15.8 23.7 12.8 24.5 9.6 24.7 C6.5 25 3.5 25.4 0.3 25.2 C-2.9 25.1 -5.9 24.8 -9 24.2 C-12.2 23.6 -15.1 22.5 -18.2 21.6 C-21.4 20.8 -24.3 19.4 -27.4 18.3 C-28.3 18 -29.3 18.5 -29.7 19.4 C-30 20.3 -29.5 21.3 -28.6 21.7 Z "/></g><g transform="translate(272.1 368.0) scale(1.880)"><path d="M-18.7 -33.4 C-19.6 -30 -20.7 -26.7 -21.4 -23.2 C-22.2 -19.8 -22.9 -16.3 -23.5 -12.9 C-24.1 -9.5 -24.2 -5.9 -24.5 -2.4 C-24.9 1 -24.7 4.6 -24.8 8.1 C-24.9 11.5 -24.9 15.1 -24.8 18.6 C-24.7 22 -24.9 25.6 -24.8 29.1 C-24.7 30.1 -23.9 30.8 -22.9 30.8 C-21.9 30.7 -21.2 29.9 -21.2 28.9 C-21.4 25.4 -21.5 22 -21.5 18.5 C-21.6 15 -21.9 11.6 -21.8 8.1 C-21.7 4.7 -21.8 1.3 -21.5 -2.1 C-21.1 -5.6 -20.8 -8.9 -20.2 -12.4 C-19.6 -15.8 -18.7 -19.1 -18 -22.5 C-17.2 -25.9 -16.2 -29.2 -15.3 -32.6 C-15.1 -33.5 -15.6 -34.5 -16.6 -34.7 C-17.5 -34.9 -18.5 -34.4 -18.7 -33.4 Z M-10.5 -27.7 C-10 -24.4 -10 -21 -9.5 -17.6 C-9.1 -14.2 -8.7 -10.9 -8.4 -7.5 C-8.1 -4.2 -7.4 -0.9 -7.2 2.5 C-7 5.9 -6.5 9.2 -6.4 12.6 C-6.3 16 -6.4 19.4 -6.4 22.8 C-6.4 26.2 -6.9 29.5 -7 32.9 C-7.1 33.9 -6.3 34.7 -5.3 34.8 C-4.3 34.8 -3.5 34 -3.5 33.1 C-3.4 29.7 -3.2 26.2 -3.2 22.8 C-3.1 19.4 -3.3 16 -3.4 12.6 C-3.5 9.2 -3.9 5.7 -4.1 2.3 C-4.3 -1.1 -4.7 -4.5 -5 -7.9 C-5.4 -11.2 -5.5 -14.7 -6 -18.1 C-6.4 -21.4 -6.5 -24.9 -7 -28.3 C-7.1 -29.2 -8 -29.9 -9 -29.8 C-10 -29.6 -10.6 -28.7 -10.5 -27.7 Z M5.5 -32.3 C4.9 -29.2 3.8 -26 3.3 -22.8 C2.7 -19.6 2.2 -16.3 1.8 -13.1 C1.4 -9.9 1.5 -6.5 1.2 -3.3 C1 -0.1 1.3 3.3 1.2 6.5 C1.1 9.7 1.1 13 1.2 16.3 C1.2 19.5 0.8 22.8 0.9 26.1 C1 27.1 1.8 27.8 2.8 27.8 C3.8 27.8 4.6 26.9 4.5 25.9 C4.4 22.7 4.4 19.5 4.4 16.2 C4.4 13 4.1 9.8 4.2 6.6 C4.2 3.3 4 0.2 4.2 -3.1 C4.5 -6.3 4.7 -9.5 5.1 -12.7 C5.5 -15.9 6.3 -19 6.9 -22.2 C7.4 -25.4 8.4 -28.5 9 -31.7 C9.2 -32.6 8.6 -33.6 7.6 -33.8 C6.7 -34 5.7 -33.3 5.5 -32.3 Z M14 -25.5 C14.9 -22.4 15.4 -19.2 16.2 -16 C17 -12.8 17.7 -9.8 18.3 -6.6 C19 -3.4 19.8 -0.4 20.2 2.9 C20.6 6.1 21.1 9.2 21.2 12.4 C21.4 15.7 21.3 18.9 21.3 22.1 C21.2 25.4 20.8 28.6 20.6 31.9 C20.6 32.9 21.3 33.7 22.3 33.8 C23.2 33.8 24.1 33.1 24.1 32.1 C24.3 28.8 24.5 25.5 24.6 22.2 C24.6 18.9 24.4 15.6 24.3 12.3 C24.2 9.1 23.6 5.7 23.2 2.5 C22.9 -0.7 22.2 -4 21.6 -7.2 C21 -10.4 20.4 -13.7 19.6 -16.9 C18.8 -20 18.2 -23.3 17.3 -26.5 C17.1 -27.4 16.1 -28 15.1 -27.7 C14.2 -27.4 13.7 -26.4 14 -25.5 Z "/></g><g transform="translate(368.0 373.5) scale(2.120)"><path d="M-27.8 -4.7 C-24.4 -8 -20.5 -10.8 -17 -13.4 C-13.4 -16 -10.3 -18.3 -6.7 -19.7 C-3.2 -21.1 -0.6 -22.1 2.8 -22 C6.3 -21.8 9.1 -21.2 12.5 -19.4 C15.9 -17.6 18.9 -15 22.2 -12.1 C25.5 -9.1 28.6 -5.5 31.7 -1.9 C32.3 -1.1 33.4 -1 34.1 -1.7 C34.9 -2.3 35 -3.4 34.3 -4.1 C31.3 -7.7 27.7 -11.6 24.4 -14.5 C21 -17.4 17.3 -20.3 13.9 -22.1 C10.5 -23.9 6.4 -24.9 3 -25.1 C-0.4 -25.2 -4.5 -24.2 -8 -22.8 C-11.5 -21.4 -15.5 -18.9 -19.1 -16.3 C-22.6 -13.7 -26.9 -10.5 -30.2 -7.3 C-30.9 -6.6 -30.9 -5.5 -30.3 -4.8 C-29.6 -4.1 -28.5 -4.1 -27.8 -4.7 Z M-31.9 4.9 C-28.5 2.3 -24.8 0.3 -21.2 -1.8 C-17.6 -3.8 -14.5 -5.6 -11 -6.7 C-7.5 -7.8 -4.8 -8.8 -1.3 -8.6 C2.1 -8.4 5.1 -8 8.4 -6.6 C11.8 -5.1 14.9 -3 18.2 -0.6 C21.6 1.8 24.7 4.8 27.8 7.8 C28.5 8.5 29.6 8.4 30.3 7.7 C31 7 30.9 5.9 30.2 5.2 C27.1 2.3 23.5 -0.8 20.1 -3.2 C16.8 -5.6 13 -7.9 9.6 -9.3 C6.2 -10.8 2.3 -11.5 -1.2 -11.6 C-4.6 -11.8 -8.5 -11 -12 -9.9 C-15.5 -8.8 -19.4 -7 -23 -4.9 C-26.6 -2.9 -30.7 -0.5 -34.1 2.1 C-34.9 2.7 -35 3.8 -34.4 4.6 C-33.8 5.4 -32.7 5.5 -31.9 4.9 Z M-30.1 14.6 C-26.6 12.6 -22.9 11.3 -19.3 9.7 C-15.7 8.2 -12.6 6.9 -9 6.1 C-5.5 5.3 -2.5 4.4 1 4.6 C4.5 4.7 7.6 5 11.1 6.1 C14.5 7.2 17.7 8.9 21.2 10.8 C24.6 12.7 27.7 15.1 31 17.5 C31.8 18 32.9 17.8 33.5 17 C34 16.2 33.8 15.1 33 14.5 C29.8 12.2 26.1 9.8 22.7 7.9 C19.3 6.1 15.5 4.4 12 3.3 C8.5 2.2 4.6 1.7 1.1 1.6 C-2.4 1.4 -6.2 2 -9.8 2.8 C-13.3 3.6 -17.2 4.9 -20.8 6.4 C-24.3 7.9 -28.4 9.4 -31.9 11.4 C-32.8 11.9 -33.1 13 -32.6 13.9 C-32.1 14.8 -31 15.1 -30.1 14.6 Z M-31.4 24.1 C-27.9 22.9 -24.4 22.1 -20.9 21.2 C-17.4 20.2 -14.2 19.4 -10.7 18.9 C-7.3 18.4 -4.2 17.9 -0.7 18.1 C2.7 18.2 5.9 18.4 9.3 19.2 C12.7 20 16 21.2 19.4 22.5 C22.7 23.8 25.9 25.5 29.2 27.1 C30.1 27.5 31.2 27.1 31.6 26.3 C32 25.4 31.6 24.3 30.8 23.9 C27.5 22.3 23.9 20.7 20.5 19.4 C17.1 18.1 13.4 17.1 10 16.2 C6.6 15.4 2.9 15.1 -0.6 15 C-4 14.8 -7.7 15.1 -11.2 15.6 C-14.7 16.1 -18.4 16.8 -21.9 17.8 C-25.4 18.7 -29.2 19.6 -32.6 20.9 C-33.5 21.2 -34 22.2 -33.6 23.1 C-33.3 24 -32.3 24.5 -31.4 24.1 Z M-29.7 33.8 C-26.2 33.2 -22.7 33.1 -19.2 32.7 C-15.6 32.3 -12.3 32 -8.7 31.8 C-5.2 31.6 -1.9 31.2 1.6 31.4 C5.1 31.5 8.5 31.5 12 32 C15.5 32.5 18.8 33.2 22.3 33.9 C25.8 34.6 29.1 35.8 32.6 36.7 C33.5 37 34.5 36.4 34.7 35.4 C35 34.5 34.4 33.5 33.4 33.3 C30 32.4 26.5 31.4 23 30.7 C19.5 30 15.9 29.5 12.4 29 C8.9 28.5 5.2 28.5 1.7 28.3 C-1.8 28.2 -5.4 28.3 -8.9 28.5 C-12.4 28.6 -16 28.7 -19.6 29.1 C-23.1 29.5 -26.8 29.7 -30.3 30.2 C-31.3 30.4 -31.9 31.3 -31.8 32.3 C-31.6 33.3 -30.7 33.9 -29.7 33.8 Z "/></g></g></svg>